<svg width="1280" height="720" viewBox="0 0 1280 720" fill="none" xmlns="http://www.w3.org/2000/svg">
<g clip-path="url(#clip0_3_23)">
<rect width="1280" height="720" fill="#E4E1D8"/>
<g filter="url(#filter0_d_3_23)">
<path d="M-77 11H1356C1372.57 11 1386 24.4315 1386 41V678C1386 694.569 1372.57 708 1356 708H-77V11Z" fill="#F8F7F2"/>
<path d="M299.789 47.5957L295.567 63H292.678L289.745 52.2256C289.623 51.7673 289.548 51.266 289.52 50.7217H289.477C289.441 51.2301 289.355 51.7243 289.219 52.2041L286.275 63H283.321L279.014 47.5957H281.817L284.61 58.875C284.725 59.3477 284.797 59.8418 284.825 60.3574H284.879C284.908 59.9922 285.008 59.498 285.18 58.875L288.338 47.5957H290.97L293.892 58.9609C293.992 59.3477 294.067 59.806 294.117 60.3359H294.16C294.182 59.9779 294.264 59.5052 294.407 58.918L297.147 47.5957H299.789ZM310.402 58.1768H302.904C302.933 59.1937 303.245 59.9779 303.839 60.5293C304.441 61.0807 305.264 61.3564 306.31 61.3564C307.484 61.3564 308.562 61.0055 309.543 60.3037V62.3125C308.54 62.9427 307.216 63.2578 305.568 63.2578C303.95 63.2578 302.679 62.7601 301.755 61.7646C300.838 60.762 300.38 59.3548 300.38 57.543C300.38 55.8314 300.885 54.4385 301.895 53.3643C302.912 52.2829 304.172 51.7422 305.676 51.7422C307.18 51.7422 308.344 52.2256 309.167 53.1924C309.991 54.1592 310.402 55.502 310.402 57.2207V58.1768ZM307.996 56.415C307.989 55.5199 307.778 54.8252 307.362 54.3311C306.947 53.8298 306.374 53.5791 305.644 53.5791C304.928 53.5791 304.319 53.8405 303.817 54.3633C303.323 54.8861 303.019 55.57 302.904 56.415H307.996ZM315.279 63H312.776V46.7148H315.279V63ZM326.408 62.4951C325.527 63.0036 324.485 63.2578 323.282 63.2578C321.65 63.2578 320.332 62.7493 319.329 61.7324C318.327 60.7083 317.825 59.3835 317.825 57.7578C317.825 55.946 318.362 54.4922 319.437 53.3965C320.518 52.2936 321.961 51.7422 323.766 51.7422C324.768 51.7422 325.653 51.9176 326.419 52.2686V54.5889C325.653 54.016 324.836 53.7295 323.97 53.7295C322.917 53.7295 322.054 54.0876 321.381 54.8037C320.708 55.5127 320.371 56.4437 320.371 57.5967C320.371 58.7354 320.686 59.6341 321.316 60.293C321.954 60.9518 322.806 61.2812 323.873 61.2812C324.768 61.2812 325.613 60.9626 326.408 60.3252V62.4951ZM333.767 63.2578C332.069 63.2578 330.712 62.7458 329.695 61.7217C328.686 60.6904 328.181 59.3262 328.181 57.6289C328.181 55.7812 328.707 54.3382 329.76 53.2998C330.82 52.2614 332.245 51.7422 334.035 51.7422C335.754 51.7422 337.093 52.2471 338.053 53.2568C339.012 54.2666 339.492 55.6667 339.492 57.457C339.492 59.2116 338.973 60.6188 337.935 61.6787C336.903 62.7314 335.514 63.2578 333.767 63.2578ZM333.885 53.7295C332.911 53.7295 332.141 54.0697 331.575 54.75C331.01 55.4303 330.727 56.3685 330.727 57.5645C330.727 58.7174 331.013 59.627 331.586 60.293C332.159 60.9518 332.925 61.2812 333.885 61.2812C334.866 61.2812 335.618 60.9554 336.141 60.3037C336.671 59.652 336.936 58.7246 336.936 57.5215C336.936 56.3112 336.671 55.3766 336.141 54.7178C335.618 54.0589 334.866 53.7295 333.885 53.7295ZM358.484 63H355.992V57.0059C355.992 55.8529 355.828 55.0186 355.498 54.5029C355.176 53.9873 354.628 53.7295 353.855 53.7295C353.203 53.7295 352.648 54.0553 352.19 54.707C351.738 55.3587 351.513 56.1393 351.513 57.0488V63H349.01V56.8018C349.01 54.7536 348.287 53.7295 346.84 53.7295C346.167 53.7295 345.612 54.0374 345.175 54.6533C344.745 55.2692 344.53 56.0677 344.53 57.0488V63H342.038V52H344.53V53.7402H344.573C345.368 52.4082 346.525 51.7422 348.043 51.7422C348.802 51.7422 349.465 51.9535 350.03 52.376C350.603 52.7913 350.994 53.3392 351.201 54.0195C352.018 52.5013 353.235 51.7422 354.854 51.7422C357.274 51.7422 358.484 53.2354 358.484 56.2217V63ZM370.838 58.1768H363.34C363.369 59.1937 363.68 59.9779 364.275 60.5293C364.876 61.0807 365.7 61.3564 366.745 61.3564C367.92 61.3564 368.997 61.0055 369.979 60.3037V62.3125C368.976 62.9427 367.651 63.2578 366.004 63.2578C364.386 63.2578 363.114 62.7601 362.191 61.7646C361.274 60.762 360.816 59.3548 360.816 57.543C360.816 55.8314 361.32 54.4385 362.33 53.3643C363.347 52.2829 364.608 51.7422 366.111 51.7422C367.615 51.7422 368.779 52.2256 369.603 53.1924C370.426 54.1592 370.838 55.502 370.838 57.2207V58.1768ZM368.432 56.415C368.425 55.5199 368.213 54.8252 367.798 54.3311C367.383 53.8298 366.81 53.5791 366.079 53.5791C365.363 53.5791 364.754 53.8405 364.253 54.3633C363.759 54.8861 363.455 55.57 363.34 56.415H368.432ZM385.071 62.8818C384.584 63.1253 383.943 63.2471 383.149 63.2471C381.014 63.2471 379.947 62.223 379.947 60.1748V53.9551H378.11V52H379.947V49.4541L382.44 48.7451V52H385.071V53.9551H382.44V59.4551C382.44 60.1068 382.558 60.5723 382.794 60.8516C383.03 61.1309 383.424 61.2705 383.976 61.2705C384.398 61.2705 384.763 61.1488 385.071 60.9053V62.8818ZM391.968 63.2578C390.271 63.2578 388.914 62.7458 387.897 61.7217C386.887 60.6904 386.382 59.3262 386.382 57.6289C386.382 55.7812 386.908 54.3382 387.961 53.2998C389.021 52.2614 390.446 51.7422 392.236 51.7422C393.955 51.7422 395.294 52.2471 396.254 53.2568C397.214 54.2666 397.693 55.6667 397.693 57.457C397.693 59.2116 397.174 60.6188 396.136 61.6787C395.105 62.7314 393.715 63.2578 391.968 63.2578ZM392.086 53.7295C391.112 53.7295 390.342 54.0697 389.776 54.75C389.211 55.4303 388.928 56.3685 388.928 57.5645C388.928 58.7174 389.214 59.627 389.787 60.293C390.36 60.9518 391.126 61.2812 392.086 61.2812C393.067 61.2812 393.819 60.9554 394.342 60.3037C394.872 59.652 395.137 58.7246 395.137 57.5215C395.137 56.3112 394.872 55.3766 394.342 54.7178C393.819 54.0589 393.067 53.7295 392.086 53.7295ZM412.099 62.8818C411.612 63.1253 410.971 63.2471 410.176 63.2471C408.042 63.2471 406.975 62.223 406.975 60.1748V53.9551H405.138V52H406.975V49.4541L409.467 48.7451V52H412.099V53.9551H409.467V59.4551C409.467 60.1068 409.585 60.5723 409.821 60.8516C410.058 61.1309 410.452 61.2705 411.003 61.2705C411.426 61.2705 411.791 61.1488 412.099 60.9053V62.8818ZM424.023 63H421.53V56.9844C421.53 54.8073 420.803 53.7188 419.35 53.7188C418.619 53.7188 418.003 54.0339 417.502 54.6641C417.001 55.2943 416.75 56.0999 416.75 57.0811V63H414.247V46.7148H416.75V53.8262H416.793C417.624 52.4368 418.813 51.7422 420.359 51.7422C422.802 51.7422 424.023 53.2354 424.023 56.2217V63ZM436.365 58.1768H428.867C428.896 59.1937 429.207 59.9779 429.802 60.5293C430.403 61.0807 431.227 61.3564 432.273 61.3564C433.447 61.3564 434.525 61.0055 435.506 60.3037V62.3125C434.503 62.9427 433.178 63.2578 431.531 63.2578C429.913 63.2578 428.642 62.7601 427.718 61.7646C426.801 60.762 426.343 59.3548 426.343 57.543C426.343 55.8314 426.848 54.4385 427.858 53.3643C428.874 52.2829 430.135 51.7422 431.639 51.7422C433.143 51.7422 434.306 52.2256 435.13 53.1924C435.954 54.1592 436.365 55.502 436.365 57.2207V58.1768ZM433.959 56.415C433.952 55.5199 433.741 54.8252 433.325 54.3311C432.91 53.8298 432.337 53.5791 431.607 53.5791C430.89 53.5791 430.282 53.8405 429.78 54.3633C429.286 54.8861 428.982 55.57 428.867 56.415H433.959ZM445.077 63V47.5957H449.965C451.455 47.5957 452.633 47.9215 453.499 48.5732C454.373 49.2249 454.81 50.0736 454.81 51.1191C454.81 51.9928 454.563 52.752 454.068 53.3965C453.574 54.041 452.89 54.4993 452.017 54.7715V54.8145C453.077 54.9362 453.922 55.3301 454.552 55.9961C455.189 56.6549 455.508 57.5143 455.508 58.5742C455.508 59.8919 454.989 60.959 453.95 61.7754C452.912 62.5918 451.601 63 450.019 63H445.077ZM447.623 49.6475V54.0303H449.277C450.165 54.0303 450.86 53.8226 451.361 53.4072C451.87 52.9847 452.124 52.3903 452.124 51.624C452.124 50.3063 451.243 49.6475 449.482 49.6475H447.623ZM447.623 56.082V60.959H449.804C450.756 60.959 451.49 60.7406 452.006 60.3037C452.529 59.8597 452.79 59.251 452.79 58.4775C452.79 56.8805 451.684 56.082 449.471 56.082H447.623ZM459.354 49.6904C458.945 49.6904 458.594 49.5579 458.301 49.293C458.014 49.028 457.871 48.6914 457.871 48.2832C457.871 47.875 458.014 47.5348 458.301 47.2627C458.594 46.9906 458.945 46.8545 459.354 46.8545C459.776 46.8545 460.134 46.9906 460.428 47.2627C460.721 47.5348 460.868 47.875 460.868 48.2832C460.868 48.6699 460.721 49.0029 460.428 49.2822C460.134 49.5544 459.776 49.6904 459.354 49.6904ZM460.589 63H458.097V52H460.589V63ZM473.834 63H470.676L466.4 57.7148H466.358V63H463.855V46.7148H466.358V57.0381H466.4L470.44 52H473.437L468.893 57.3066L473.834 63ZM484.34 58.1768H476.842C476.871 59.1937 477.182 59.9779 477.776 60.5293C478.378 61.0807 479.202 61.3564 480.247 61.3564C481.422 61.3564 482.499 61.0055 483.481 60.3037V62.3125C482.478 62.9427 481.153 63.2578 479.506 63.2578C477.887 63.2578 476.616 62.7601 475.692 61.7646C474.776 60.762 474.317 59.3548 474.317 57.543C474.317 55.8314 474.822 54.4385 475.832 53.3643C476.849 52.2829 478.109 51.7422 479.613 51.7422C481.117 51.7422 482.281 52.2256 483.105 53.1924C483.928 54.1592 484.34 55.502 484.34 57.2207V58.1768ZM481.934 56.415C481.927 55.5199 481.715 54.8252 481.3 54.3311C480.885 53.8298 480.312 53.5791 479.581 53.5791C478.865 53.5791 478.256 53.8405 477.755 54.3633C477.261 54.8861 476.956 55.57 476.842 56.415H481.934ZM492.343 62.3877V59.7559C492.579 59.9707 492.858 60.1641 493.181 60.3359C493.51 60.5078 493.858 60.6546 494.223 60.7764C494.588 60.891 494.953 60.9805 495.318 61.0449C495.684 61.1094 496.02 61.1416 496.328 61.1416C497.402 61.1416 498.201 60.9626 498.724 60.6045C499.254 60.2464 499.519 59.7272 499.519 59.0469C499.519 58.6816 499.429 58.3665 499.25 58.1016C499.078 57.8294 498.835 57.5824 498.52 57.3604C498.205 57.1383 497.832 56.9271 497.402 56.7266C496.98 56.5189 496.525 56.304 496.038 56.082C495.515 55.8027 495.028 55.5199 494.577 55.2334C494.126 54.9469 493.732 54.6318 493.396 54.2881C493.066 53.9372 492.805 53.5433 492.611 53.1064C492.425 52.6696 492.332 52.1576 492.332 51.5703C492.332 50.847 492.493 50.2204 492.816 49.6904C493.145 49.1533 493.575 48.7129 494.105 48.3691C494.642 48.0182 495.25 47.7604 495.931 47.5957C496.611 47.4238 497.306 47.3379 498.015 47.3379C499.626 47.3379 500.801 47.5205 501.538 47.8857V50.4102C500.664 49.7799 499.54 49.4648 498.165 49.4648C497.786 49.4648 497.406 49.5007 497.026 49.5723C496.654 49.6439 496.317 49.762 496.017 49.9268C495.723 50.0915 495.483 50.3027 495.297 50.5605C495.111 50.8184 495.018 51.1299 495.018 51.4951C495.018 51.8389 495.089 52.1361 495.233 52.3867C495.376 52.6374 495.583 52.8665 495.856 53.0742C496.135 53.2819 496.471 53.486 496.865 53.6865C497.266 53.8799 497.728 54.0911 498.251 54.3203C498.788 54.5996 499.293 54.8932 499.766 55.2012C500.246 55.5091 500.664 55.8493 501.023 56.2217C501.388 56.5941 501.674 57.0094 501.882 57.4678C502.097 57.9189 502.204 58.4346 502.204 59.0146C502.204 59.7952 502.047 60.4541 501.732 60.9912C501.416 61.5283 500.99 61.9652 500.453 62.3018C499.923 62.6383 499.311 62.8818 498.616 63.0322C497.922 63.1826 497.188 63.2578 496.414 63.2578C496.156 63.2578 495.838 63.2363 495.458 63.1934C495.086 63.1576 494.703 63.1003 494.309 63.0215C493.915 62.9499 493.542 62.8604 493.191 62.7529C492.841 62.6455 492.558 62.5238 492.343 62.3877ZM509.917 62.8818C509.43 63.1253 508.789 63.2471 507.994 63.2471C505.86 63.2471 504.793 62.223 504.793 60.1748V53.9551H502.956V52H504.793V49.4541L507.285 48.7451V52H509.917V53.9551H507.285V59.4551C507.285 60.1068 507.403 60.5723 507.64 60.8516C507.876 61.1309 508.27 61.2705 508.821 61.2705C509.244 61.2705 509.609 61.1488 509.917 60.9053V62.8818ZM516.814 63.2578C515.116 63.2578 513.759 62.7458 512.742 61.7217C511.733 60.6904 511.228 59.3262 511.228 57.6289C511.228 55.7812 511.754 54.3382 512.807 53.2998C513.867 52.2614 515.292 51.7422 517.082 51.7422C518.801 51.7422 520.14 52.2471 521.1 53.2568C522.059 54.2666 522.539 55.6667 522.539 57.457C522.539 59.2116 522.02 60.6188 520.982 61.6787C519.95 62.7314 518.561 63.2578 516.814 63.2578ZM516.932 53.7295C515.958 53.7295 515.188 54.0697 514.622 54.75C514.056 55.4303 513.774 56.3685 513.774 57.5645C513.774 58.7174 514.06 59.627 514.633 60.293C515.206 60.9518 515.972 61.2812 516.932 61.2812C517.913 61.2812 518.665 60.9554 519.188 60.3037C519.718 59.652 519.983 58.7246 519.983 57.5215C519.983 56.3112 519.718 55.3766 519.188 54.7178C518.665 54.0589 517.913 53.7295 516.932 53.7295ZM531.466 54.374C531.165 54.1377 530.732 54.0195 530.166 54.0195C529.428 54.0195 528.813 54.3525 528.318 55.0186C527.824 55.6846 527.577 56.5905 527.577 57.7363V63H525.085V52H527.577V54.2666H527.62C527.864 53.4932 528.236 52.8916 528.737 52.4619C529.246 52.0251 529.812 51.8066 530.435 51.8066C530.886 51.8066 531.23 51.8747 531.466 52.0107V54.374ZM542.348 58.1768H534.85C534.878 59.1937 535.19 59.9779 535.784 60.5293C536.386 61.0807 537.209 61.3564 538.255 61.3564C539.429 61.3564 540.507 61.0055 541.488 60.3037V62.3125C540.486 62.9427 539.161 63.2578 537.514 63.2578C535.895 63.2578 534.624 62.7601 533.7 61.7646C532.784 60.762 532.325 59.3548 532.325 57.543C532.325 55.8314 532.83 54.4385 533.84 53.3643C534.857 52.2829 536.117 51.7422 537.621 51.7422C539.125 51.7422 540.289 52.2256 541.112 53.1924C541.936 54.1592 542.348 55.502 542.348 57.2207V58.1768ZM539.941 56.415C539.934 55.5199 539.723 54.8252 539.308 54.3311C538.892 53.8298 538.319 53.5791 537.589 53.5791C536.873 53.5791 536.264 53.8405 535.763 54.3633C535.269 54.8861 534.964 55.57 534.85 56.415H539.941ZM550.351 62.3877V59.7559C550.587 59.9707 550.866 60.1641 551.189 60.3359C551.518 60.5078 551.865 60.6546 552.231 60.7764C552.596 60.891 552.961 60.9805 553.326 61.0449C553.691 61.1094 554.028 61.1416 554.336 61.1416C555.41 61.1416 556.209 60.9626 556.732 60.6045C557.261 60.2464 557.526 59.7272 557.526 59.0469C557.526 58.6816 557.437 58.3665 557.258 58.1016C557.086 57.8294 556.843 57.5824 556.527 57.3604C556.212 57.1383 555.84 56.9271 555.41 56.7266C554.988 56.5189 554.533 56.304 554.046 56.082C553.523 55.8027 553.036 55.5199 552.585 55.2334C552.134 54.9469 551.74 54.6318 551.403 54.2881C551.074 53.9372 550.813 53.5433 550.619 53.1064C550.433 52.6696 550.34 52.1576 550.34 51.5703C550.34 50.847 550.501 50.2204 550.823 49.6904C551.153 49.1533 551.582 48.7129 552.112 48.3691C552.65 48.0182 553.258 47.7604 553.939 47.5957C554.619 47.4238 555.314 47.3379 556.023 47.3379C557.634 47.3379 558.808 47.5205 559.546 47.8857V50.4102C558.672 49.7799 557.548 49.4648 556.173 49.4648C555.793 49.4648 555.414 49.5007 555.034 49.5723C554.662 49.6439 554.325 49.762 554.025 49.9268C553.731 50.0915 553.491 50.3027 553.305 50.5605C553.119 50.8184 553.025 51.1299 553.025 51.4951C553.025 51.8389 553.097 52.1361 553.24 52.3867C553.384 52.6374 553.591 52.8665 553.863 53.0742C554.143 53.2819 554.479 53.486 554.873 53.6865C555.274 53.8799 555.736 54.0911 556.259 54.3203C556.796 54.5996 557.301 54.8932 557.774 55.2012C558.253 55.5091 558.672 55.8493 559.03 56.2217C559.396 56.5941 559.682 57.0094 559.89 57.4678C560.105 57.9189 560.212 58.4346 560.212 59.0146C560.212 59.7952 560.054 60.4541 559.739 60.9912C559.424 61.5283 558.998 61.9652 558.461 62.3018C557.931 62.6383 557.319 62.8818 556.624 63.0322C555.929 63.1826 555.195 63.2578 554.422 63.2578C554.164 63.2578 553.845 63.2363 553.466 63.1934C553.094 63.1576 552.71 63.1003 552.316 63.0215C551.923 62.9499 551.55 62.8604 551.199 62.7529C550.848 62.6455 550.566 62.5238 550.351 62.3877ZM571.212 63H568.795V61.2812H568.752C567.993 62.599 566.879 63.2578 565.411 63.2578C564.33 63.2578 563.481 62.9642 562.865 62.377C562.257 61.7897 561.952 61.0127 561.952 60.0459C561.952 57.9691 563.148 56.7588 565.54 56.415L568.806 55.9531C568.806 54.3848 568.061 53.6006 566.571 53.6006C565.261 53.6006 564.079 54.0518 563.026 54.9541V52.7734C564.187 52.0859 565.526 51.7422 567.044 51.7422C569.823 51.7422 571.212 53.11 571.212 55.8457V63ZM568.806 57.5967L566.496 57.9189C565.78 58.012 565.239 58.1875 564.874 58.4453C564.516 58.696 564.337 59.14 564.337 59.7773C564.337 60.2428 564.502 60.626 564.831 60.9268C565.168 61.2204 565.615 61.3672 566.174 61.3672C566.933 61.3672 567.56 61.1022 568.054 60.5723C568.555 60.0352 568.806 59.362 568.806 58.5527V57.5967ZM576.766 63H574.263V46.7148H576.766V63ZM589.334 58.1768H581.836C581.865 59.1937 582.176 59.9779 582.771 60.5293C583.372 61.0807 584.196 61.3564 585.241 61.3564C586.416 61.3564 587.494 61.0055 588.475 60.3037V62.3125C587.472 62.9427 586.147 63.2578 584.5 63.2578C582.882 63.2578 581.61 62.7601 580.687 61.7646C579.77 60.762 579.312 59.3548 579.312 57.543C579.312 55.8314 579.816 54.4385 580.826 53.3643C581.843 52.2829 583.104 51.7422 584.608 51.7422C586.111 51.7422 587.275 52.2256 588.099 53.1924C588.922 54.1592 589.334 55.502 589.334 57.2207V58.1768ZM586.928 56.415C586.921 55.5199 586.709 54.8252 586.294 54.3311C585.879 53.8298 585.306 53.5791 584.575 53.5791C583.859 53.5791 583.25 53.8405 582.749 54.3633C582.255 54.8861 581.951 55.57 581.836 56.415H586.928ZM591.021 62.6562V60.3467C591.952 61.0557 592.979 61.4102 594.104 61.4102C595.608 61.4102 596.359 60.9661 596.359 60.0781C596.359 59.8275 596.295 59.6162 596.166 59.4443C596.037 59.2653 595.862 59.1077 595.64 58.9717C595.425 58.8356 595.167 58.7139 594.866 58.6064C594.573 58.499 594.243 58.3773 593.878 58.2412C593.427 58.0622 593.019 57.8724 592.653 57.6719C592.295 57.4714 591.995 57.2458 591.751 56.9951C591.515 56.7373 591.336 56.4473 591.214 56.125C591.092 55.8027 591.031 55.4268 591.031 54.9971C591.031 54.4671 591.157 54.0016 591.407 53.6006C591.658 53.1924 591.995 52.8522 592.417 52.5801C592.84 52.3008 593.319 52.0931 593.857 51.957C594.394 51.8138 594.949 51.7422 595.522 51.7422C596.539 51.7422 597.448 51.8962 598.25 52.2041V54.3848C597.477 53.8548 596.589 53.5898 595.586 53.5898C595.271 53.5898 594.984 53.6221 594.727 53.6865C594.476 53.751 594.261 53.8405 594.082 53.9551C593.903 54.0697 593.763 54.2093 593.663 54.374C593.563 54.5316 593.513 54.707 593.513 54.9004C593.513 55.1367 593.563 55.3372 593.663 55.502C593.763 55.6667 593.91 55.8135 594.104 55.9424C594.304 56.0641 594.54 56.1787 594.813 56.2861C595.092 56.3864 595.411 56.4974 595.769 56.6191C596.241 56.8125 596.664 57.0094 597.036 57.21C597.416 57.4105 597.738 57.6396 598.003 57.8975C598.268 58.1481 598.472 58.4417 598.615 58.7783C598.759 59.1077 598.83 59.5016 598.83 59.96C598.83 60.5186 598.701 61.0055 598.443 61.4209C598.186 61.8363 597.842 62.18 597.412 62.4521C596.983 62.7243 596.485 62.9248 595.919 63.0537C595.36 63.1898 594.77 63.2578 594.147 63.2578C592.943 63.2578 591.901 63.0573 591.021 62.6562ZM619.444 63H616.458L613.998 58.875C613.776 58.4954 613.558 58.1732 613.343 57.9082C613.135 57.6361 612.92 57.4141 612.698 57.2422C612.483 57.0703 612.247 56.945 611.989 56.8662C611.732 56.7874 611.441 56.748 611.119 56.748H610.088V63H607.542V47.5957H612.612C613.336 47.5957 614.002 47.6816 614.61 47.8535C615.219 48.0254 615.749 48.2868 616.2 48.6377C616.651 48.9814 617.002 49.4147 617.253 49.9375C617.511 50.4531 617.64 51.0583 617.64 51.7529C617.64 52.2972 617.557 52.7985 617.393 53.2568C617.235 53.708 617.006 54.1126 616.705 54.4707C616.412 54.8216 616.053 55.1224 615.631 55.373C615.216 55.6237 614.747 55.8171 614.224 55.9531V55.9961C614.503 56.1536 614.747 56.3291 614.954 56.5225C615.162 56.7087 615.359 56.902 615.545 57.1025C615.731 57.3031 615.914 57.5322 616.093 57.79C616.279 58.0407 616.483 58.3343 616.705 58.6709L619.444 63ZM610.088 49.6689V54.6748H612.215C612.609 54.6748 612.97 54.6139 613.3 54.4922C613.636 54.3704 613.927 54.195 614.17 53.9658C614.414 53.7367 614.603 53.4574 614.739 53.1279C614.875 52.7985 614.943 52.4297 614.943 52.0215C614.943 51.2839 614.711 50.7074 614.245 50.292C613.78 49.8766 613.11 49.6689 612.236 49.6689H610.088ZM629.703 58.1768H622.205C622.234 59.1937 622.545 59.9779 623.14 60.5293C623.741 61.0807 624.565 61.3564 625.61 61.3564C626.785 61.3564 627.863 61.0055 628.844 60.3037V62.3125C627.841 62.9427 626.516 63.2578 624.869 63.2578C623.251 63.2578 621.98 62.7601 621.056 61.7646C620.139 60.762 619.681 59.3548 619.681 57.543C619.681 55.8314 620.186 54.4385 621.195 53.3643C622.212 52.2829 623.473 51.7422 624.977 51.7422C626.481 51.7422 627.644 52.2256 628.468 53.1924C629.291 54.1592 629.703 55.502 629.703 57.2207V58.1768ZM627.297 56.415C627.29 55.5199 627.079 54.8252 626.663 54.3311C626.248 53.8298 625.675 53.5791 624.944 53.5791C624.228 53.5791 623.62 53.8405 623.118 54.3633C622.624 54.8861 622.32 55.57 622.205 56.415H627.297ZM634.612 61.3779H634.569V68.0596H632.077V52H634.569V53.9336H634.612C635.465 52.4727 636.711 51.7422 638.351 51.7422C639.747 51.7422 640.836 52.2327 641.616 53.2139C642.397 54.195 642.787 55.5127 642.787 57.167C642.787 59.0003 642.347 60.4684 641.466 61.5713C640.585 62.6742 639.382 63.2256 637.857 63.2256C636.453 63.2256 635.372 62.6097 634.612 61.3779ZM634.548 57.0381V58.4023C634.548 59.2044 634.802 59.8848 635.311 60.4434C635.826 61.002 636.478 61.2812 637.266 61.2812C638.19 61.2812 638.913 60.9232 639.436 60.207C639.966 59.4837 640.231 58.4775 640.231 57.1885C640.231 56.1071 639.983 55.262 639.489 54.6533C639.002 54.0374 638.34 53.7295 637.502 53.7295C636.614 53.7295 635.898 54.0446 635.354 54.6748C634.816 55.305 634.548 56.0928 634.548 57.0381ZM650.21 63.2578C648.513 63.2578 647.156 62.7458 646.139 61.7217C645.129 60.6904 644.624 59.3262 644.624 57.6289C644.624 55.7812 645.15 54.3382 646.203 53.2998C647.263 52.2614 648.688 51.7422 650.479 51.7422C652.197 51.7422 653.537 52.2471 654.496 53.2568C655.456 54.2666 655.936 55.6667 655.936 57.457C655.936 59.2116 655.416 60.6188 654.378 61.6787C653.347 62.7314 651.957 63.2578 650.21 63.2578ZM650.328 53.7295C649.354 53.7295 648.584 54.0697 648.019 54.75C647.453 55.4303 647.17 56.3685 647.17 57.5645C647.17 58.7174 647.456 59.627 648.029 60.293C648.602 60.9518 649.369 61.2812 650.328 61.2812C651.309 61.2812 652.061 60.9554 652.584 60.3037C653.114 59.652 653.379 58.7246 653.379 57.5215C653.379 56.3112 653.114 55.3766 652.584 54.7178C652.061 54.0589 651.309 53.7295 650.328 53.7295ZM664.862 54.374C664.562 54.1377 664.128 54.0195 663.563 54.0195C662.825 54.0195 662.209 54.3525 661.715 55.0186C661.221 55.6846 660.974 56.5905 660.974 57.7363V63H658.482V52H660.974V54.2666H661.017C661.26 53.4932 661.633 52.8916 662.134 52.4619C662.642 52.0251 663.208 51.8066 663.831 51.8066C664.282 51.8066 664.626 51.8747 664.862 52.0107V54.374ZM673.069 62.8818C672.582 63.1253 671.941 63.2471 671.147 63.2471C669.012 63.2471 667.945 62.223 667.945 60.1748V53.9551H666.108V52H667.945V49.4541L670.438 48.7451V52H673.069V53.9551H670.438V59.4551C670.438 60.1068 670.556 60.5723 670.792 60.8516C671.028 61.1309 671.422 61.2705 671.974 61.2705C672.396 61.2705 672.761 61.1488 673.069 60.9053V62.8818Z" fill="#2C2C2C"/>
<path d="M289.906 94.2285H285.459V108H283.654V94.2285H279.218V92.5957H289.906V94.2285ZM294.547 108.258C292.921 108.258 291.622 107.746 290.648 106.722C289.681 105.69 289.197 104.326 289.197 102.629C289.197 100.781 289.702 99.3382 290.712 98.2998C291.722 97.2614 293.086 96.7422 294.805 96.7422C296.445 96.7422 297.723 97.2471 298.64 98.2568C299.564 99.2666 300.025 100.667 300.025 102.457C300.025 104.212 299.528 105.619 298.532 106.679C297.544 107.731 296.216 108.258 294.547 108.258ZM294.676 98.2246C293.544 98.2246 292.649 98.6113 291.99 99.3848C291.331 100.151 291.002 101.211 291.002 102.564C291.002 103.868 291.335 104.896 292.001 105.647C292.667 106.399 293.559 106.775 294.676 106.775C295.815 106.775 296.688 106.407 297.297 105.669C297.913 104.931 298.221 103.882 298.221 102.521C298.221 101.146 297.913 100.087 297.297 99.3418C296.688 98.597 295.815 98.2246 294.676 98.2246ZM308.211 107.603V105.712C309.171 106.421 310.227 106.775 311.38 106.775C312.927 106.775 313.7 106.26 313.7 105.229C313.7 104.935 313.632 104.688 313.496 104.487C313.367 104.28 313.188 104.097 312.959 103.939C312.737 103.782 312.472 103.642 312.164 103.521C311.863 103.392 311.538 103.259 311.187 103.123C310.7 102.93 310.27 102.736 309.898 102.543C309.532 102.342 309.224 102.12 308.974 101.877C308.73 101.626 308.544 101.343 308.415 101.028C308.293 100.713 308.233 100.344 308.233 99.9219C308.233 99.4062 308.351 98.9515 308.587 98.5576C308.823 98.1566 309.138 97.8236 309.532 97.5586C309.926 97.2865 310.374 97.0824 310.875 96.9463C311.384 96.8102 311.906 96.7422 312.443 96.7422C313.396 96.7422 314.248 96.9069 315 97.2363V99.0195C314.191 98.4896 313.26 98.2246 312.207 98.2246C311.878 98.2246 311.58 98.264 311.316 98.3428C311.051 98.4144 310.821 98.5182 310.628 98.6543C310.442 98.7904 310.295 98.9551 310.188 99.1484C310.087 99.3346 310.037 99.5423 310.037 99.7715C310.037 100.058 310.087 100.298 310.188 100.491C310.295 100.685 310.449 100.856 310.65 101.007C310.85 101.157 311.094 101.293 311.38 101.415C311.666 101.537 311.992 101.669 312.358 101.812C312.844 101.999 313.281 102.192 313.668 102.393C314.055 102.586 314.384 102.808 314.656 103.059C314.928 103.302 315.136 103.585 315.279 103.907C315.43 104.229 315.505 104.613 315.505 105.057C315.505 105.601 315.383 106.074 315.14 106.475C314.903 106.876 314.585 107.209 314.184 107.474C313.783 107.739 313.321 107.936 312.798 108.064C312.275 108.193 311.727 108.258 311.154 108.258C310.023 108.258 309.042 108.039 308.211 107.603ZM323.325 107.893C322.91 108.122 322.362 108.236 321.682 108.236C319.755 108.236 318.792 107.162 318.792 105.014V98.5039H316.901V97H318.792V94.3145L320.554 93.7451V97H323.325V98.5039H320.554V104.702C320.554 105.44 320.679 105.966 320.93 106.281C321.18 106.596 321.596 106.754 322.176 106.754C322.62 106.754 323.003 106.632 323.325 106.389V107.893ZM333.552 108H331.79V106.281H331.747C330.981 107.599 329.853 108.258 328.363 108.258C327.268 108.258 326.408 107.968 325.785 107.388C325.169 106.808 324.861 106.038 324.861 105.078C324.861 103.023 326.072 101.827 328.492 101.49L331.79 101.028C331.79 99.1592 331.035 98.2246 329.524 98.2246C328.199 98.2246 327.003 98.6758 325.936 99.5781V97.7734C327.017 97.0859 328.263 96.7422 329.674 96.7422C332.259 96.7422 333.552 98.11 333.552 100.846V108ZM331.79 102.436L329.137 102.801C328.32 102.915 327.705 103.119 327.289 103.413C326.874 103.7 326.666 104.212 326.666 104.949C326.666 105.486 326.856 105.927 327.235 106.271C327.622 106.607 328.134 106.775 328.772 106.775C329.645 106.775 330.365 106.471 330.931 105.862C331.504 105.246 331.79 104.469 331.79 103.531V102.436ZM342.608 98.7832C342.3 98.5469 341.856 98.4287 341.275 98.4287C340.524 98.4287 339.893 98.7832 339.385 99.4922C338.884 100.201 338.633 101.168 338.633 102.393V108H336.871V97H338.633V99.2666H338.676C338.927 98.4932 339.31 97.8916 339.825 97.4619C340.341 97.0251 340.917 96.8066 341.555 96.8066C342.013 96.8066 342.364 96.8568 342.608 96.957V98.7832ZM349.622 107.893C349.207 108.122 348.659 108.236 347.979 108.236C346.052 108.236 345.089 107.162 345.089 105.014V98.5039H343.198V97H345.089V94.3145L346.851 93.7451V97H349.622V98.5039H346.851V104.702C346.851 105.44 346.976 105.966 347.227 106.281C347.477 106.596 347.893 106.754 348.473 106.754C348.917 106.754 349.3 106.632 349.622 106.389V107.893ZM353.586 105.551L351.867 110.836H350.61L351.867 105.551H353.586ZM362.115 107.603V105.712C363.075 106.421 364.131 106.775 365.284 106.775C366.831 106.775 367.605 106.26 367.605 105.229C367.605 104.935 367.537 104.688 367.4 104.487C367.272 104.28 367.093 104.097 366.863 103.939C366.641 103.782 366.376 103.642 366.068 103.521C365.768 103.392 365.442 103.259 365.091 103.123C364.604 102.93 364.174 102.736 363.802 102.543C363.437 102.342 363.129 102.12 362.878 101.877C362.635 101.626 362.448 101.343 362.319 101.028C362.198 100.713 362.137 100.344 362.137 99.9219C362.137 99.4062 362.255 98.9515 362.491 98.5576C362.728 98.1566 363.043 97.8236 363.437 97.5586C363.83 97.2865 364.278 97.0824 364.779 96.9463C365.288 96.8102 365.811 96.7422 366.348 96.7422C367.3 96.7422 368.152 96.9069 368.904 97.2363V99.0195C368.095 98.4896 367.164 98.2246 366.111 98.2246C365.782 98.2246 365.485 98.264 365.22 98.3428C364.955 98.4144 364.726 98.5182 364.532 98.6543C364.346 98.7904 364.199 98.9551 364.092 99.1484C363.992 99.3346 363.941 99.5423 363.941 99.7715C363.941 100.058 363.992 100.298 364.092 100.491C364.199 100.685 364.353 100.856 364.554 101.007C364.754 101.157 364.998 101.293 365.284 101.415C365.571 101.537 365.897 101.669 366.262 101.812C366.749 101.999 367.186 102.192 367.572 102.393C367.959 102.586 368.289 102.808 368.561 103.059C368.833 103.302 369.04 103.585 369.184 103.907C369.334 104.229 369.409 104.613 369.409 105.057C369.409 105.601 369.288 106.074 369.044 106.475C368.808 106.876 368.489 107.209 368.088 107.474C367.687 107.739 367.225 107.936 366.702 108.064C366.179 108.193 365.632 108.258 365.059 108.258C363.927 108.258 362.946 108.039 362.115 107.603ZM380.968 102.94H373.201C373.23 104.165 373.559 105.11 374.19 105.776C374.82 106.442 375.686 106.775 376.789 106.775C378.028 106.775 379.167 106.367 380.205 105.551V107.205C379.238 107.907 377.96 108.258 376.37 108.258C374.816 108.258 373.595 107.76 372.707 106.765C371.819 105.762 371.375 104.355 371.375 102.543C371.375 100.831 371.858 99.4385 372.825 98.3643C373.799 97.2829 375.006 96.7422 376.445 96.7422C377.885 96.7422 378.998 97.2077 379.786 98.1387C380.574 99.0697 380.968 100.362 380.968 102.017V102.94ZM379.163 101.447C379.156 100.43 378.909 99.639 378.422 99.0732C377.942 98.5075 377.273 98.2246 376.413 98.2246C375.582 98.2246 374.877 98.5218 374.297 99.1162C373.717 99.7106 373.359 100.488 373.223 101.447H379.163ZM385.404 108H383.643V91.7148H385.404V108ZM397.812 102.94H390.045C390.074 104.165 390.403 105.11 391.033 105.776C391.664 106.442 392.53 106.775 393.633 106.775C394.872 106.775 396.011 106.367 397.049 105.551V107.205C396.082 107.907 394.804 108.258 393.214 108.258C391.66 108.258 390.439 107.76 389.551 106.765C388.663 105.762 388.219 104.355 388.219 102.543C388.219 100.831 388.702 99.4385 389.669 98.3643C390.643 97.2829 391.85 96.7422 393.289 96.7422C394.729 96.7422 395.842 97.2077 396.63 98.1387C397.418 99.0697 397.812 100.362 397.812 102.017V102.94ZM396.007 101.447C396 100.43 395.753 99.639 395.266 99.0732C394.786 98.5075 394.116 98.2246 393.257 98.2246C392.426 98.2246 391.721 98.5218 391.141 99.1162C390.561 99.7106 390.203 100.488 390.066 101.447H396.007ZM407.984 107.495C407.139 108.004 406.137 108.258 404.977 108.258C403.408 108.258 402.141 107.749 401.174 106.732C400.214 105.708 399.734 104.383 399.734 102.758C399.734 100.946 400.254 99.4922 401.292 98.3965C402.33 97.2936 403.716 96.7422 405.449 96.7422C406.416 96.7422 407.268 96.9212 408.006 97.2793V99.084C407.19 98.5111 406.316 98.2246 405.385 98.2246C404.261 98.2246 403.337 98.6292 402.613 99.4385C401.897 100.241 401.539 101.297 401.539 102.607C401.539 103.896 401.876 104.913 402.549 105.658C403.229 106.403 404.139 106.775 405.277 106.775C406.237 106.775 407.139 106.457 407.984 105.819V107.495ZM415.751 107.893C415.336 108.122 414.788 108.236 414.108 108.236C412.181 108.236 411.218 107.162 411.218 105.014V98.5039H409.327V97H411.218V94.3145L412.98 93.7451V97H415.751V98.5039H412.98V104.702C412.98 105.44 413.105 105.966 413.356 106.281C413.606 106.596 414.022 106.754 414.602 106.754C415.046 106.754 415.429 106.632 415.751 106.389V107.893ZM432.015 108H430.253V106.281H430.21C429.444 107.599 428.316 108.258 426.826 108.258C425.731 108.258 424.871 107.968 424.248 107.388C423.632 106.808 423.324 106.038 423.324 105.078C423.324 103.023 424.535 101.827 426.955 101.49L430.253 101.028C430.253 99.1592 429.497 98.2246 427.986 98.2246C426.662 98.2246 425.466 98.6758 424.399 99.5781V97.7734C425.48 97.0859 426.726 96.7422 428.137 96.7422C430.722 96.7422 432.015 98.11 432.015 100.846V108ZM430.253 102.436L427.6 102.801C426.783 102.915 426.167 103.119 425.752 103.413C425.337 103.7 425.129 104.212 425.129 104.949C425.129 105.486 425.319 105.927 425.698 106.271C426.085 106.607 426.597 106.775 427.234 106.775C428.108 106.775 428.828 106.471 429.394 105.862C429.967 105.246 430.253 104.469 430.253 103.531V102.436ZM447.108 98.7832C446.8 98.5469 446.356 98.4287 445.775 98.4287C445.024 98.4287 444.393 98.7832 443.885 99.4922C443.384 100.201 443.133 101.168 443.133 102.393V108H441.371V97H443.133V99.2666H443.176C443.427 98.4932 443.81 97.8916 444.325 97.4619C444.841 97.0251 445.417 96.8066 446.055 96.8066C446.513 96.8066 446.864 96.8568 447.108 96.957V98.7832ZM457.86 102.94H450.094C450.122 104.165 450.452 105.11 451.082 105.776C451.712 106.442 452.579 106.775 453.682 106.775C454.921 106.775 456.059 106.367 457.098 105.551V107.205C456.131 107.907 454.853 108.258 453.263 108.258C451.709 108.258 450.488 107.76 449.6 106.765C448.712 105.762 448.268 104.355 448.268 102.543C448.268 100.831 448.751 99.4385 449.718 98.3643C450.692 97.2829 451.899 96.7422 453.338 96.7422C454.777 96.7422 455.891 97.2077 456.679 98.1387C457.467 99.0697 457.86 100.362 457.86 102.017V102.94ZM456.056 101.447C456.049 100.43 455.802 99.639 455.315 99.0732C454.835 98.5075 454.165 98.2246 453.306 98.2246C452.475 98.2246 451.77 98.5218 451.19 99.1162C450.609 99.7106 450.251 100.488 450.115 101.447H456.056ZM462.34 106.41H462.297V113.06H460.535V97H462.297V98.9336H462.34C463.206 97.4727 464.474 96.7422 466.143 96.7422C467.561 96.7422 468.667 97.2363 469.462 98.2246C470.257 99.2057 470.654 100.523 470.654 102.178C470.654 104.018 470.207 105.493 469.312 106.604C468.416 107.706 467.192 108.258 465.638 108.258C464.213 108.258 463.113 107.642 462.34 106.41ZM462.297 101.974V103.51C462.297 104.419 462.591 105.193 463.178 105.83C463.772 106.46 464.524 106.775 465.434 106.775C466.501 106.775 467.335 106.367 467.937 105.551C468.545 104.734 468.85 103.599 468.85 102.146C468.85 100.921 468.567 99.9613 468.001 99.2666C467.435 98.5719 466.669 98.2246 465.702 98.2246C464.678 98.2246 463.855 98.5827 463.232 99.2988C462.608 100.008 462.297 100.899 462.297 101.974ZM478.066 108.258C476.441 108.258 475.141 107.746 474.167 106.722C473.2 105.69 472.717 104.326 472.717 102.629C472.717 100.781 473.222 99.3382 474.232 98.2998C475.241 97.2614 476.606 96.7422 478.324 96.7422C479.964 96.7422 481.243 97.2471 482.159 98.2568C483.083 99.2666 483.545 100.667 483.545 102.457C483.545 104.212 483.047 105.619 482.052 106.679C481.064 107.731 479.735 108.258 478.066 108.258ZM478.195 98.2246C477.064 98.2246 476.169 98.6113 475.51 99.3848C474.851 100.151 474.522 101.211 474.522 102.564C474.522 103.868 474.855 104.896 475.521 105.647C476.187 106.399 477.078 106.775 478.195 106.775C479.334 106.775 480.208 106.407 480.816 105.669C481.432 104.931 481.74 103.882 481.74 102.521C481.74 101.146 481.432 100.087 480.816 99.3418C480.208 98.597 479.334 98.2246 478.195 98.2246ZM492.096 98.7832C491.788 98.5469 491.344 98.4287 490.764 98.4287C490.012 98.4287 489.382 98.7832 488.873 99.4922C488.372 100.201 488.121 101.168 488.121 102.393V108H486.359V97H488.121V99.2666H488.164C488.415 98.4932 488.798 97.8916 489.314 97.4619C489.829 97.0251 490.406 96.8066 491.043 96.8066C491.501 96.8066 491.852 96.8568 492.096 96.957V98.7832ZM499.11 107.893C498.695 108.122 498.147 108.236 497.467 108.236C495.54 108.236 494.577 107.162 494.577 105.014V98.5039H492.687V97H494.577V94.3145L496.339 93.7451V97H499.11V98.5039H496.339V104.702C496.339 105.44 496.464 105.966 496.715 106.281C496.966 106.596 497.381 106.754 497.961 106.754C498.405 106.754 498.788 106.632 499.11 106.389V107.893ZM509.305 106.41H509.262V113.06H507.5V97H509.262V98.9336H509.305C510.171 97.4727 511.439 96.7422 513.108 96.7422C514.525 96.7422 515.632 97.2363 516.427 98.2246C517.222 99.2057 517.619 100.523 517.619 102.178C517.619 104.018 517.172 105.493 516.276 106.604C515.381 107.706 514.157 108.258 512.603 108.258C511.178 108.258 510.078 107.642 509.305 106.41ZM509.262 101.974V103.51C509.262 104.419 509.555 105.193 510.143 105.83C510.737 106.46 511.489 106.775 512.399 106.775C513.466 106.775 514.3 106.367 514.901 105.551C515.51 104.734 515.815 103.599 515.815 102.146C515.815 100.921 515.532 99.9613 514.966 99.2666C514.4 98.5719 513.634 98.2246 512.667 98.2246C511.643 98.2246 510.819 98.5827 510.196 99.2988C509.573 100.008 509.262 100.899 509.262 101.974ZM528.308 108H526.546V106.281H526.503C525.737 107.599 524.609 108.258 523.119 108.258C522.024 108.258 521.164 107.968 520.541 107.388C519.925 106.808 519.617 106.038 519.617 105.078C519.617 103.023 520.828 101.827 523.248 101.49L526.546 101.028C526.546 99.1592 525.79 98.2246 524.279 98.2246C522.955 98.2246 521.759 98.6758 520.691 99.5781V97.7734C521.773 97.0859 523.019 96.7422 524.43 96.7422C527.015 96.7422 528.308 98.11 528.308 100.846V108ZM526.546 102.436L523.893 102.801C523.076 102.915 522.46 103.119 522.045 103.413C521.63 103.7 521.422 104.212 521.422 104.949C521.422 105.486 521.612 105.927 521.991 106.271C522.378 106.607 522.89 106.775 523.527 106.775C524.401 106.775 525.121 106.471 525.687 105.862C526.26 105.246 526.546 104.469 526.546 103.531V102.436ZM541.016 107.119C541.016 111.158 539.082 113.178 535.215 113.178C533.854 113.178 532.665 112.92 531.649 112.404V110.643C532.887 111.33 534.069 111.674 535.193 111.674C537.9 111.674 539.254 110.234 539.254 107.355V106.152H539.211C538.373 107.556 537.113 108.258 535.43 108.258C534.062 108.258 532.959 107.771 532.121 106.797C531.29 105.816 530.875 104.502 530.875 102.854C530.875 100.985 531.323 99.4993 532.218 98.3965C533.12 97.2936 534.352 96.7422 535.913 96.7422C537.396 96.7422 538.495 97.3366 539.211 98.5254H539.254V97H541.016V107.119ZM539.254 103.026V101.404C539.254 100.531 538.957 99.7822 538.362 99.1592C537.775 98.5361 537.041 98.2246 536.16 98.2246C535.072 98.2246 534.219 98.6221 533.604 99.417C532.988 100.205 532.68 101.311 532.68 102.736C532.68 103.961 532.973 104.942 533.561 105.68C534.155 106.41 534.939 106.775 535.913 106.775C536.901 106.775 537.704 106.424 538.319 105.723C538.942 105.021 539.254 104.122 539.254 103.026ZM553.423 102.94H545.656C545.685 104.165 546.014 105.11 546.645 105.776C547.275 106.442 548.141 106.775 549.244 106.775C550.483 106.775 551.622 106.367 552.66 105.551V107.205C551.693 107.907 550.415 108.258 548.825 108.258C547.271 108.258 546.05 107.76 545.162 106.765C544.274 105.762 543.83 104.355 543.83 102.543C543.83 100.831 544.314 99.4385 545.28 98.3643C546.254 97.2829 547.461 96.7422 548.9 96.7422C550.34 96.7422 551.454 97.2077 552.241 98.1387C553.029 99.0697 553.423 100.362 553.423 102.017V102.94ZM551.618 101.447C551.611 100.43 551.364 99.639 550.877 99.0732C550.397 98.5075 549.728 98.2246 548.868 98.2246C548.038 98.2246 547.332 98.5218 546.752 99.1162C546.172 99.7106 545.814 100.488 545.678 101.447H551.618ZM567.57 93.2617C567.227 93.0684 566.836 92.9717 566.4 92.9717C565.168 92.9717 564.552 93.7487 564.552 95.3027V97H567.13V98.5039H564.552V108H562.801V98.5039H560.921V97H562.801V95.2168C562.801 94.0638 563.134 93.1543 563.8 92.4883C564.466 91.8151 565.297 91.4785 566.292 91.4785C566.829 91.4785 567.255 91.543 567.57 91.6719V93.2617ZM574.768 98.7832C574.46 98.5469 574.016 98.4287 573.436 98.4287C572.684 98.4287 572.053 98.7832 571.545 99.4922C571.044 100.201 570.793 101.168 570.793 102.393V108H569.031V97H570.793V99.2666H570.836C571.087 98.4932 571.47 97.8916 571.985 97.4619C572.501 97.0251 573.078 96.8066 573.715 96.8066C574.173 96.8066 574.524 96.8568 574.768 96.957V98.7832ZM581.277 108.258C579.652 108.258 578.352 107.746 577.378 106.722C576.411 105.69 575.928 104.326 575.928 102.629C575.928 100.781 576.433 99.3382 577.442 98.2998C578.452 97.2614 579.816 96.7422 581.535 96.7422C583.175 96.7422 584.454 97.2471 585.37 98.2568C586.294 99.2666 586.756 100.667 586.756 102.457C586.756 104.212 586.258 105.619 585.263 106.679C584.275 107.731 582.946 108.258 581.277 108.258ZM581.406 98.2246C580.275 98.2246 579.38 98.6113 578.721 99.3848C578.062 100.151 577.733 101.211 577.733 102.564C577.733 103.868 578.066 104.896 578.732 105.647C579.398 106.399 580.289 106.775 581.406 106.775C582.545 106.775 583.419 106.407 584.027 105.669C584.643 104.931 584.951 103.882 584.951 102.521C584.951 101.146 584.643 100.087 584.027 99.3418C583.419 98.597 582.545 98.2246 581.406 98.2246ZM605.19 108H603.428V101.684C603.428 100.466 603.238 99.5853 602.858 99.041C602.486 98.4967 601.856 98.2246 600.968 98.2246C600.216 98.2246 599.575 98.5684 599.045 99.2559C598.522 99.9434 598.261 100.767 598.261 101.727V108H596.499V101.469C596.499 99.306 595.665 98.2246 593.996 98.2246C593.223 98.2246 592.585 98.5505 592.084 99.2021C591.583 99.8467 591.332 100.688 591.332 101.727V108H589.57V97H591.332V98.7402H591.375C592.156 97.4082 593.294 96.7422 594.791 96.7422C595.543 96.7422 596.198 96.9535 596.757 97.376C597.316 97.7913 597.699 98.3392 597.906 99.0195C598.723 97.5013 599.94 96.7422 601.559 96.7422C603.979 96.7422 605.19 98.2354 605.19 101.222V108ZM619.659 107.893C619.244 108.122 618.696 108.236 618.016 108.236C616.089 108.236 615.126 107.162 615.126 105.014V98.5039H613.235V97H615.126V94.3145L616.888 93.7451V97H619.659V98.5039H616.888V104.702C616.888 105.44 617.013 105.966 617.264 106.281C617.514 106.596 617.93 106.754 618.51 106.754C618.954 106.754 619.337 106.632 619.659 106.389V107.893ZM631.143 108H629.381V101.662C629.381 99.3704 628.529 98.2246 626.824 98.2246C625.965 98.2246 625.242 98.5576 624.654 99.2236C624.067 99.8825 623.774 100.731 623.774 101.77V108H622.012V91.7148H623.774V98.8262H623.816C624.662 97.4368 625.865 96.7422 627.426 96.7422C629.904 96.7422 631.143 98.2354 631.143 101.222V108ZM643.314 102.94H635.547C635.576 104.165 635.905 105.11 636.535 105.776C637.165 106.442 638.032 106.775 639.135 106.775C640.374 106.775 641.512 106.367 642.551 105.551V107.205C641.584 107.907 640.306 108.258 638.716 108.258C637.162 108.258 635.941 107.76 635.053 106.765C634.165 105.762 633.721 104.355 633.721 102.543C633.721 100.831 634.204 99.4385 635.171 98.3643C636.145 97.2829 637.352 96.7422 638.791 96.7422C640.231 96.7422 641.344 97.2077 642.132 98.1387C642.92 99.0697 643.314 100.362 643.314 102.017V102.94ZM641.509 101.447C641.502 100.43 641.255 99.639 640.768 99.0732C640.288 98.5075 639.618 98.2246 638.759 98.2246C637.928 98.2246 637.223 98.5218 636.643 99.1162C636.063 99.7106 635.705 100.488 635.568 101.447H641.509ZM661.156 108H659.395V101.727C659.395 99.3919 658.542 98.2246 656.838 98.2246C655.957 98.2246 655.227 98.5576 654.647 99.2236C654.074 99.8825 653.787 100.717 653.787 101.727V108H652.025V97H653.787V98.8262H653.83C654.661 97.4368 655.864 96.7422 657.44 96.7422C658.643 96.7422 659.563 97.1325 660.2 97.9131C660.838 98.6865 661.156 99.8073 661.156 101.275V108ZM672.36 108H670.599V106.281H670.556C669.789 107.599 668.662 108.258 667.172 108.258C666.076 108.258 665.217 107.968 664.594 107.388C663.978 106.808 663.67 106.038 663.67 105.078C663.67 103.023 664.88 101.827 667.301 101.49L670.599 101.028C670.599 99.1592 669.843 98.2246 668.332 98.2246C667.007 98.2246 665.811 98.6758 664.744 99.5781V97.7734C665.826 97.0859 667.072 96.7422 668.483 96.7422C671.068 96.7422 672.36 98.11 672.36 100.846V108ZM670.599 102.436L667.945 102.801C667.129 102.915 666.513 103.119 666.098 103.413C665.682 103.7 665.475 104.212 665.475 104.949C665.475 105.486 665.664 105.927 666.044 106.271C666.431 106.607 666.943 106.775 667.58 106.775C668.454 106.775 669.174 106.471 669.739 105.862C670.312 105.246 670.599 104.469 670.599 103.531V102.436ZM684.327 97L679.944 108H678.215L674.047 97H675.981L678.774 104.992C678.981 105.579 679.11 106.091 679.16 106.528H679.203C679.275 105.977 679.389 105.479 679.547 105.035L682.469 97H684.327ZM687.131 94.207C686.816 94.207 686.547 94.0996 686.325 93.8848C686.103 93.6699 685.992 93.3978 685.992 93.0684C685.992 92.7389 686.103 92.4668 686.325 92.252C686.547 92.0299 686.816 91.9189 687.131 91.9189C687.453 91.9189 687.725 92.0299 687.947 92.252C688.177 92.4668 688.291 92.7389 688.291 93.0684C688.291 93.3835 688.177 93.652 687.947 93.874C687.725 94.096 687.453 94.207 687.131 94.207ZM687.99 108H686.229V97H687.99V108ZM700.945 107.119C700.945 111.158 699.012 113.178 695.145 113.178C693.784 113.178 692.595 112.92 691.578 112.404V110.643C692.817 111.33 693.999 111.674 695.123 111.674C697.83 111.674 699.184 110.234 699.184 107.355V106.152H699.141C698.303 107.556 697.042 108.258 695.359 108.258C693.992 108.258 692.889 107.771 692.051 106.797C691.22 105.816 690.805 104.502 690.805 102.854C690.805 100.985 691.252 99.4993 692.148 98.3965C693.05 97.2936 694.282 96.7422 695.843 96.7422C697.325 96.7422 698.425 97.3366 699.141 98.5254H699.184V97H700.945V107.119ZM699.184 103.026V101.404C699.184 100.531 698.886 99.7822 698.292 99.1592C697.705 98.5361 696.971 98.2246 696.09 98.2246C695.001 98.2246 694.149 98.6221 693.533 99.417C692.917 100.205 692.609 101.311 692.609 102.736C692.609 103.961 692.903 104.942 693.49 105.68C694.085 106.41 694.869 106.775 695.843 106.775C696.831 106.775 697.633 106.424 698.249 105.723C698.872 105.021 699.184 104.122 699.184 103.026ZM712.386 108H710.624V106.281H710.581C709.815 107.599 708.687 108.258 707.197 108.258C706.102 108.258 705.242 107.968 704.619 107.388C704.003 106.808 703.695 106.038 703.695 105.078C703.695 103.023 704.906 101.827 707.326 101.49L710.624 101.028C710.624 99.1592 709.869 98.2246 708.358 98.2246C707.033 98.2246 705.837 98.6758 704.77 99.5781V97.7734C705.851 97.0859 707.097 96.7422 708.508 96.7422C711.093 96.7422 712.386 98.11 712.386 100.846V108ZM710.624 102.436L707.971 102.801C707.154 102.915 706.539 103.119 706.123 103.413C705.708 103.7 705.5 104.212 705.5 104.949C705.5 105.486 705.69 105.927 706.069 106.271C706.456 106.607 706.968 106.775 707.606 106.775C708.479 106.775 709.199 106.471 709.765 105.862C710.338 105.246 710.624 104.469 710.624 103.531V102.436ZM720.808 107.893C720.392 108.122 719.844 108.236 719.164 108.236C717.238 108.236 716.275 107.162 716.275 105.014V98.5039H714.384V97H716.275V94.3145L718.036 93.7451V97H720.808V98.5039H718.036V104.702C718.036 105.44 718.162 105.966 718.412 106.281C718.663 106.596 719.078 106.754 719.658 106.754C720.102 106.754 720.485 106.632 720.808 106.389V107.893ZM724.063 94.207C723.747 94.207 723.479 94.0996 723.257 93.8848C723.035 93.6699 722.924 93.3978 722.924 93.0684C722.924 92.7389 723.035 92.4668 723.257 92.252C723.479 92.0299 723.747 91.9189 724.063 91.9189C724.385 91.9189 724.657 92.0299 724.879 92.252C725.108 92.4668 725.223 92.7389 725.223 93.0684C725.223 93.3835 725.108 93.652 724.879 93.874C724.657 94.096 724.385 94.207 724.063 94.207ZM724.922 108H723.16V97H724.922V108ZM733.086 108.258C731.46 108.258 730.161 107.746 729.187 106.722C728.22 105.69 727.736 104.326 727.736 102.629C727.736 100.781 728.241 99.3382 729.251 98.2998C730.261 97.2614 731.625 96.7422 733.344 96.7422C734.984 96.7422 736.262 97.2471 737.179 98.2568C738.103 99.2666 738.565 100.667 738.565 102.457C738.565 104.212 738.067 105.619 737.071 106.679C736.083 107.731 734.755 108.258 733.086 108.258ZM733.215 98.2246C732.083 98.2246 731.188 98.6113 730.529 99.3848C729.871 100.151 729.541 101.211 729.541 102.564C729.541 103.868 729.874 104.896 730.54 105.647C731.206 106.399 732.098 106.775 733.215 106.775C734.354 106.775 735.227 106.407 735.836 105.669C736.452 104.931 736.76 103.882 736.76 102.521C736.76 101.146 736.452 100.087 735.836 99.3418C735.227 98.597 734.354 98.2246 733.215 98.2246ZM750.51 108H748.748V101.727C748.748 99.3919 747.896 98.2246 746.191 98.2246C745.311 98.2246 744.58 98.5576 744 99.2236C743.427 99.8825 743.141 100.717 743.141 101.727V108H741.379V97H743.141V98.8262H743.184C744.014 97.4368 745.218 96.7422 746.793 96.7422C747.996 96.7422 748.916 97.1325 749.554 97.9131C750.191 98.6865 750.51 99.8073 750.51 101.275V108ZM761.682 106.41H761.639V113.06H759.877V97H761.639V98.9336H761.682C762.548 97.4727 763.816 96.7422 765.484 96.7422C766.902 96.7422 768.009 97.2363 768.804 98.2246C769.599 99.2057 769.996 100.523 769.996 102.178C769.996 104.018 769.549 105.493 768.653 106.604C767.758 107.706 766.534 108.258 764.98 108.258C763.554 108.258 762.455 107.642 761.682 106.41ZM761.639 101.974V103.51C761.639 104.419 761.932 105.193 762.52 105.83C763.114 106.46 763.866 106.775 764.775 106.775C765.843 106.775 766.677 106.367 767.278 105.551C767.887 104.734 768.191 103.599 768.191 102.146C768.191 100.921 767.909 99.9613 767.343 99.2666C766.777 98.5719 766.011 98.2246 765.044 98.2246C764.02 98.2246 763.196 98.5827 762.573 99.2988C761.95 100.008 761.639 100.899 761.639 101.974ZM780.685 108H778.923V106.281H778.88C778.114 107.599 776.986 108.258 775.496 108.258C774.4 108.258 773.541 107.968 772.918 107.388C772.302 106.808 771.994 106.038 771.994 105.078C771.994 103.023 773.205 101.827 775.625 101.49L778.923 101.028C778.923 99.1592 778.167 98.2246 776.656 98.2246C775.331 98.2246 774.136 98.6758 773.068 99.5781V97.7734C774.15 97.0859 775.396 96.7422 776.807 96.7422C779.392 96.7422 780.685 98.11 780.685 100.846V108ZM778.923 102.436L776.27 102.801C775.453 102.915 774.837 103.119 774.422 103.413C774.007 103.7 773.799 104.212 773.799 104.949C773.799 105.486 773.989 105.927 774.368 106.271C774.755 106.607 775.267 106.775 775.904 106.775C776.778 106.775 777.498 106.471 778.064 105.862C778.636 105.246 778.923 104.469 778.923 103.531V102.436ZM793.135 108H791.373V101.727C791.373 99.3919 790.521 98.2246 788.816 98.2246C787.936 98.2246 787.205 98.5576 786.625 99.2236C786.052 99.8825 785.766 100.717 785.766 101.727V108H784.004V97H785.766V98.8262H785.809C786.639 97.4368 787.843 96.7422 789.418 96.7422C790.621 96.7422 791.541 97.1325 792.179 97.9131C792.816 98.6865 793.135 99.8073 793.135 101.275V108ZM805.306 102.94H797.539C797.568 104.165 797.897 105.11 798.527 105.776C799.158 106.442 800.024 106.775 801.127 106.775C802.366 106.775 803.505 106.367 804.543 105.551V107.205C803.576 107.907 802.298 108.258 800.708 108.258C799.154 108.258 797.933 107.76 797.045 106.765C796.157 105.762 795.713 104.355 795.713 102.543C795.713 100.831 796.196 99.4385 797.163 98.3643C798.137 97.2829 799.344 96.7422 800.783 96.7422C802.223 96.7422 803.336 97.2077 804.124 98.1387C804.912 99.0697 805.306 100.362 805.306 102.017V102.94ZM803.501 101.447C803.494 100.43 803.247 99.639 802.76 99.0732C802.28 98.5075 801.61 98.2246 800.751 98.2246C799.92 98.2246 799.215 98.5218 798.635 99.1162C798.055 99.7106 797.697 100.488 797.561 101.447H803.501ZM818.615 108.258C816.99 108.258 815.69 107.746 814.716 106.722C813.749 105.69 813.266 104.326 813.266 102.629C813.266 100.781 813.771 99.3382 814.78 98.2998C815.79 97.2614 817.154 96.7422 818.873 96.7422C820.513 96.7422 821.791 97.2471 822.708 98.2568C823.632 99.2666 824.094 100.667 824.094 102.457C824.094 104.212 823.596 105.619 822.601 106.679C821.612 107.731 820.284 108.258 818.615 108.258ZM818.744 98.2246C817.613 98.2246 816.718 98.6113 816.059 99.3848C815.4 100.151 815.07 101.211 815.07 102.564C815.07 103.868 815.403 104.896 816.069 105.647C816.735 106.399 817.627 106.775 818.744 106.775C819.883 106.775 820.757 106.407 821.365 105.669C821.981 104.931 822.289 103.882 822.289 102.521C822.289 101.146 821.981 100.087 821.365 99.3418C820.757 98.597 819.883 98.2246 818.744 98.2246ZM836.039 108H834.277V101.727C834.277 99.3919 833.425 98.2246 831.721 98.2246C830.84 98.2246 830.109 98.5576 829.529 99.2236C828.956 99.8825 828.67 100.717 828.67 101.727V108H826.908V97H828.67V98.8262H828.713C829.544 97.4368 830.747 96.7422 832.322 96.7422C833.525 96.7422 834.446 97.1325 835.083 97.9131C835.72 98.6865 836.039 99.8073 836.039 101.275V108ZM850.509 107.893C850.094 108.122 849.546 108.236 848.865 108.236C846.939 108.236 845.976 107.162 845.976 105.014V98.5039H844.085V97H845.976V94.3145L847.737 93.7451V97H850.509V98.5039H847.737V104.702C847.737 105.44 847.863 105.966 848.113 106.281C848.364 106.596 848.779 106.754 849.359 106.754C849.803 106.754 850.187 106.632 850.509 106.389V107.893ZM861.992 108H860.231V101.662C860.231 99.3704 859.378 98.2246 857.674 98.2246C856.815 98.2246 856.091 98.5576 855.504 99.2236C854.917 99.8825 854.623 100.731 854.623 101.77V108H852.861V91.7148H854.623V98.8262H854.666C855.511 97.4368 856.714 96.7422 858.275 96.7422C860.753 96.7422 861.992 98.2354 861.992 101.222V108ZM874.163 102.94H866.397C866.425 104.165 866.755 105.11 867.385 105.776C868.015 106.442 868.882 106.775 869.984 106.775C871.223 106.775 872.362 106.367 873.4 105.551V107.205C872.434 107.907 871.155 108.258 869.566 108.258C868.011 108.258 866.79 107.76 865.902 106.765C865.014 105.762 864.57 104.355 864.57 102.543C864.57 100.831 865.054 99.4385 866.021 98.3643C866.995 97.2829 868.201 96.7422 869.641 96.7422C871.08 96.7422 872.194 97.2077 872.982 98.1387C873.769 99.0697 874.163 100.362 874.163 102.017V102.94ZM872.358 101.447C872.351 100.43 872.104 99.639 871.617 99.0732C871.137 98.5075 870.468 98.2246 869.608 98.2246C868.778 98.2246 868.072 98.5218 867.492 99.1162C866.912 99.7106 866.554 100.488 866.418 101.447H872.358ZM884.637 108H882.875V91.7148H884.637V108ZM897.044 102.94H889.277C889.306 104.165 889.636 105.11 890.266 105.776C890.896 106.442 891.762 106.775 892.865 106.775C894.104 106.775 895.243 106.367 896.281 105.551V107.205C895.315 107.907 894.036 108.258 892.446 108.258C890.892 108.258 889.671 107.76 888.783 106.765C887.895 105.762 887.451 104.355 887.451 102.543C887.451 100.831 887.935 99.4385 888.901 98.3643C889.875 97.2829 891.082 96.7422 892.522 96.7422C893.961 96.7422 895.075 97.2077 895.862 98.1387C896.65 99.0697 897.044 100.362 897.044 102.017V102.94ZM895.239 101.447C895.232 100.43 894.985 99.639 894.498 99.0732C894.018 98.5075 893.349 98.2246 892.489 98.2246C891.659 98.2246 890.953 98.5218 890.373 99.1162C889.793 99.7106 889.435 100.488 889.299 101.447H895.239ZM905.154 93.2617C904.811 93.0684 904.42 92.9717 903.983 92.9717C902.752 92.9717 902.136 93.7487 902.136 95.3027V97H904.714V98.5039H902.136V108H900.385V98.5039H898.505V97H900.385V95.2168C900.385 94.0638 900.718 93.1543 901.384 92.4883C902.05 91.8151 902.881 91.4785 903.876 91.4785C904.413 91.4785 904.839 91.543 905.154 91.6719V93.2617ZM911.718 107.893C911.303 108.122 910.755 108.236 910.074 108.236C908.148 108.236 907.185 107.162 907.185 105.014V98.5039H905.294V97H907.185V94.3145L908.946 93.7451V97H911.718V98.5039H908.946V104.702C908.946 105.44 909.072 105.966 909.322 106.281C909.573 106.596 909.988 106.754 910.568 106.754C911.012 106.754 911.396 106.632 911.718 106.389V107.893ZM924.705 108.258C923.08 108.258 921.78 107.746 920.806 106.722C919.839 105.69 919.356 104.326 919.356 102.629C919.356 100.781 919.86 99.3382 920.87 98.2998C921.88 97.2614 923.244 96.7422 924.963 96.7422C926.603 96.7422 927.881 97.2471 928.798 98.2568C929.722 99.2666 930.184 100.667 930.184 102.457C930.184 104.212 929.686 105.619 928.691 106.679C927.702 107.731 926.374 108.258 924.705 108.258ZM924.834 98.2246C923.703 98.2246 922.807 98.6113 922.149 99.3848C921.49 100.151 921.16 101.211 921.16 102.564C921.16 103.868 921.493 104.896 922.159 105.647C922.825 106.399 923.717 106.775 924.834 106.775C925.973 106.775 926.846 106.407 927.455 105.669C928.071 104.931 928.379 103.882 928.379 102.521C928.379 101.146 928.071 100.087 927.455 99.3418C926.846 98.597 925.973 98.2246 924.834 98.2246ZM938.734 98.7832C938.427 98.5469 937.983 98.4287 937.402 98.4287C936.65 98.4287 936.02 98.7832 935.512 99.4922C935.011 100.201 934.76 101.168 934.76 102.393V108H932.998V97H934.76V99.2666H934.803C935.053 98.4932 935.437 97.8916 935.952 97.4619C936.468 97.0251 937.044 96.8066 937.682 96.8066C938.14 96.8066 938.491 96.8568 938.734 96.957V98.7832ZM948.488 106.41H948.445V108H946.684V91.7148H948.445V98.9336H948.488C949.355 97.4727 950.622 96.7422 952.291 96.7422C953.702 96.7422 954.805 97.2363 955.6 98.2246C956.402 99.2057 956.803 100.523 956.803 102.178C956.803 104.018 956.355 105.493 955.46 106.604C954.565 107.706 953.34 108.258 951.786 108.258C950.332 108.258 949.233 107.642 948.488 106.41ZM948.445 101.974V103.51C948.445 104.419 948.739 105.193 949.326 105.83C949.921 106.46 950.673 106.775 951.582 106.775C952.649 106.775 953.483 106.367 954.085 105.551C954.694 104.734 954.998 103.599 954.998 102.146C954.998 100.921 954.715 99.9613 954.15 99.2666C953.584 98.5719 952.817 98.2246 951.851 98.2246C950.827 98.2246 950.003 98.5827 949.38 99.2988C948.757 100.008 948.445 100.899 948.445 101.974ZM968.458 102.94H960.691C960.72 104.165 961.05 105.11 961.68 105.776C962.31 106.442 963.177 106.775 964.279 106.775C965.518 106.775 966.657 106.367 967.695 105.551V107.205C966.729 107.907 965.45 108.258 963.86 108.258C962.306 108.258 961.085 107.76 960.197 106.765C959.309 105.762 958.865 104.355 958.865 102.543C958.865 100.831 959.349 99.4385 960.316 98.3643C961.289 97.2829 962.496 96.7422 963.936 96.7422C965.375 96.7422 966.489 97.2077 967.276 98.1387C968.064 99.0697 968.458 100.362 968.458 102.017V102.94ZM966.653 101.447C966.646 100.43 966.399 99.639 965.912 99.0732C965.432 98.5075 964.763 98.2246 963.903 98.2246C963.073 98.2246 962.367 98.5218 961.787 99.1162C961.207 99.7106 960.849 100.488 960.713 101.447H966.653ZM972.895 108H971.133V91.7148H972.895V108ZM981.059 108.258C979.433 108.258 978.133 107.746 977.159 106.722C976.192 105.69 975.709 104.326 975.709 102.629C975.709 100.781 976.214 99.3382 977.224 98.2998C978.233 97.2614 979.598 96.7422 981.316 96.7422C982.956 96.7422 984.235 97.2471 985.151 98.2568C986.075 99.2666 986.537 100.667 986.537 102.457C986.537 104.212 986.039 105.619 985.044 106.679C984.056 107.731 982.727 108.258 981.059 108.258ZM981.188 98.2246C980.056 98.2246 979.161 98.6113 978.502 99.3848C977.843 100.151 977.514 101.211 977.514 102.564C977.514 103.868 977.847 104.896 978.513 105.647C979.179 106.399 980.07 106.775 981.188 106.775C982.326 106.775 983.2 106.407 983.809 105.669C984.425 104.931 984.733 103.882 984.733 102.521C984.733 101.146 984.425 100.087 983.809 99.3418C983.2 98.597 982.326 98.2246 981.188 98.2246ZM1003.21 97L999.911 108H998.085L995.818 100.126C995.733 99.8252 995.675 99.485 995.647 99.1055H995.604C995.582 99.3633 995.507 99.6963 995.378 100.104L992.918 108H991.156L987.826 97H989.674L991.951 105.271C992.023 105.522 992.073 105.852 992.102 106.26H992.188C992.209 105.945 992.274 105.608 992.381 105.25L994.916 97H996.527L998.805 105.293C998.876 105.558 998.93 105.887 998.966 106.281H999.052C999.066 106.002 999.127 105.673 999.234 105.293L1001.47 97H1003.21ZM1005.86 108.236C1005.53 108.236 1005.25 108.118 1005.01 107.882C1004.78 107.646 1004.67 107.363 1004.67 107.033C1004.67 106.704 1004.78 106.421 1005.01 106.185C1005.25 105.941 1005.53 105.819 1005.86 105.819C1006.2 105.819 1006.49 105.941 1006.72 106.185C1006.96 106.421 1007.08 106.704 1007.08 107.033C1007.08 107.363 1006.96 107.646 1006.72 107.882C1006.49 108.118 1006.2 108.236 1005.86 108.236Z" fill="#2C2C2C"/>
</g>
<rect x="508" y="486" width="270" height="99" rx="30" fill="#F8F7F2"/>
<rect x="508" y="344" width="270" height="99" rx="30" fill="#F8F7F2"/>
<rect x="502" y="203" width="270" height="99" rx="30" fill="#F8F7F2"/>
<path d="M575.559 395.178V401H573.754V385.596H577.986C579.633 385.596 580.908 385.997 581.811 386.799C582.72 387.601 583.175 388.732 583.175 390.193C583.175 391.654 582.67 392.85 581.66 393.781C580.658 394.712 579.3 395.178 577.589 395.178H575.559ZM575.559 387.229V393.545H577.449C578.695 393.545 579.644 393.262 580.296 392.696C580.955 392.123 581.284 391.318 581.284 390.279C581.284 388.245 580.081 387.229 577.675 387.229H575.559ZM591.586 391.783C591.278 391.547 590.834 391.429 590.254 391.429C589.502 391.429 588.872 391.783 588.363 392.492C587.862 393.201 587.611 394.168 587.611 395.393V401H585.85V390H587.611V392.267H587.654C587.905 391.493 588.288 390.892 588.804 390.462C589.319 390.025 589.896 389.807 590.533 389.807C590.992 389.807 591.342 389.857 591.586 389.957V391.783ZM598.096 401.258C596.47 401.258 595.17 400.746 594.196 399.722C593.229 398.69 592.746 397.326 592.746 395.629C592.746 393.781 593.251 392.338 594.261 391.3C595.271 390.261 596.635 389.742 598.354 389.742C599.993 389.742 601.272 390.247 602.188 391.257C603.112 392.267 603.574 393.667 603.574 395.457C603.574 397.212 603.076 398.619 602.081 399.679C601.093 400.731 599.764 401.258 598.096 401.258ZM598.225 391.225C597.093 391.225 596.198 391.611 595.539 392.385C594.88 393.151 594.551 394.211 594.551 395.564C594.551 396.868 594.884 397.896 595.55 398.647C596.216 399.399 597.107 399.775 598.225 399.775C599.363 399.775 600.237 399.407 600.846 398.669C601.462 397.931 601.77 396.882 601.77 395.521C601.77 394.146 601.462 393.087 600.846 392.342C600.237 391.597 599.363 391.225 598.225 391.225ZM615.777 401H614.016V399.131H613.973C613.156 400.549 611.896 401.258 610.191 401.258C608.809 401.258 607.703 400.767 606.872 399.786C606.049 398.798 605.637 397.455 605.637 395.758C605.637 393.939 606.095 392.481 607.012 391.386C607.928 390.29 609.149 389.742 610.675 389.742C612.186 389.742 613.285 390.337 613.973 391.525H614.016V384.715H615.777V401ZM614.016 396.026V394.404C614.016 393.516 613.722 392.764 613.135 392.148C612.548 391.533 611.803 391.225 610.9 391.225C609.826 391.225 608.981 391.618 608.365 392.406C607.749 393.194 607.441 394.283 607.441 395.672C607.441 396.939 607.735 397.942 608.322 398.68C608.917 399.41 609.712 399.775 610.707 399.775C611.688 399.775 612.483 399.421 613.092 398.712C613.708 398.003 614.016 397.108 614.016 396.026ZM628.238 401H626.477V399.26H626.434C625.703 400.592 624.572 401.258 623.039 401.258C620.418 401.258 619.107 399.697 619.107 396.574V390H620.858V396.295C620.858 398.615 621.746 399.775 623.522 399.775C624.382 399.775 625.087 399.46 625.639 398.83C626.197 398.193 626.477 397.362 626.477 396.338V390H628.238V401ZM639.303 400.495C638.458 401.004 637.455 401.258 636.295 401.258C634.727 401.258 633.459 400.749 632.492 399.732C631.533 398.708 631.053 397.383 631.053 395.758C631.053 393.946 631.572 392.492 632.61 391.396C633.649 390.294 635.035 389.742 636.768 389.742C637.734 389.742 638.587 389.921 639.324 390.279V392.084C638.508 391.511 637.634 391.225 636.703 391.225C635.579 391.225 634.655 391.629 633.932 392.438C633.215 393.241 632.857 394.297 632.857 395.607C632.857 396.896 633.194 397.913 633.867 398.658C634.548 399.403 635.457 399.775 636.596 399.775C637.555 399.775 638.458 399.457 639.303 398.819V400.495ZM647.069 400.893C646.654 401.122 646.106 401.236 645.426 401.236C643.499 401.236 642.536 400.162 642.536 398.014V391.504H640.646V390H642.536V387.314L644.298 386.745V390H647.069V391.504H644.298V397.702C644.298 398.44 644.423 398.966 644.674 399.281C644.924 399.596 645.34 399.754 645.92 399.754C646.364 399.754 646.747 399.632 647.069 399.389V400.893ZM661.904 401.258C659.72 401.258 657.969 400.538 656.651 399.099C655.341 397.659 654.686 395.786 654.686 393.48C654.686 391.003 655.355 389.026 656.694 387.551C658.034 386.076 659.856 385.338 662.162 385.338C664.289 385.338 666.001 386.054 667.297 387.486C668.6 388.919 669.252 390.791 669.252 393.104C669.252 395.618 668.586 397.605 667.254 399.066C665.922 400.527 664.139 401.258 661.904 401.258ZM662.033 386.971C660.415 386.971 659.101 387.554 658.091 388.722C657.081 389.889 656.576 391.422 656.576 393.319C656.576 395.217 657.067 396.746 658.048 397.906C659.036 399.059 660.322 399.636 661.904 399.636C663.594 399.636 664.926 399.084 665.9 397.981C666.874 396.879 667.361 395.335 667.361 393.352C667.361 391.318 666.889 389.746 665.943 388.636C664.998 387.526 663.695 386.971 662.033 386.971ZM680.692 390L676.31 401H674.58L670.412 390H672.346L675.139 397.992C675.346 398.579 675.475 399.091 675.525 399.528H675.568C675.64 398.977 675.755 398.479 675.912 398.035L678.834 390H680.692ZM691.435 395.94H683.668C683.697 397.165 684.026 398.11 684.656 398.776C685.286 399.442 686.153 399.775 687.256 399.775C688.495 399.775 689.633 399.367 690.672 398.551V400.205C689.705 400.907 688.427 401.258 686.837 401.258C685.283 401.258 684.062 400.76 683.174 399.765C682.286 398.762 681.842 397.355 681.842 395.543C681.842 393.831 682.325 392.438 683.292 391.364C684.266 390.283 685.473 389.742 686.912 389.742C688.352 389.742 689.465 390.208 690.253 391.139C691.041 392.07 691.435 393.362 691.435 395.017V395.94ZM689.63 394.447C689.623 393.43 689.376 392.639 688.889 392.073C688.409 391.507 687.739 391.225 686.88 391.225C686.049 391.225 685.344 391.522 684.764 392.116C684.184 392.711 683.826 393.488 683.689 394.447H689.63ZM699.846 391.783C699.538 391.547 699.094 391.429 698.514 391.429C697.762 391.429 697.132 391.783 696.623 392.492C696.122 393.201 695.871 394.168 695.871 395.393V401H694.109V390H695.871V392.267H695.914C696.165 391.493 696.548 390.892 697.063 390.462C697.579 390.025 698.156 389.807 698.793 389.807C699.251 389.807 699.602 389.857 699.846 389.957V391.783ZM710.405 390L706.022 401H704.293L700.125 390H702.059L704.852 397.992C705.059 398.579 705.188 399.091 705.238 399.528H705.281C705.353 398.977 705.467 398.479 705.625 398.035L708.547 390H710.405ZM713.209 387.207C712.894 387.207 712.625 387.1 712.403 386.885C712.181 386.67 712.07 386.398 712.07 386.068C712.07 385.739 712.181 385.467 712.403 385.252C712.625 385.03 712.894 384.919 713.209 384.919C713.531 384.919 713.803 385.03 714.025 385.252C714.255 385.467 714.369 385.739 714.369 386.068C714.369 386.383 714.255 386.652 714.025 386.874C713.803 387.096 713.531 387.207 713.209 387.207ZM714.068 401H712.307V390H714.068V401ZM726.476 395.94H718.709C718.738 397.165 719.067 398.11 719.697 398.776C720.327 399.442 721.194 399.775 722.297 399.775C723.536 399.775 724.674 399.367 725.713 398.551V400.205C724.746 400.907 723.468 401.258 721.878 401.258C720.324 401.258 719.103 400.76 718.215 399.765C717.327 398.762 716.883 397.355 716.883 395.543C716.883 393.831 717.366 392.438 718.333 391.364C719.307 390.283 720.514 389.742 721.953 389.742C723.393 389.742 724.506 390.208 725.294 391.139C726.082 392.07 726.476 393.362 726.476 395.017V395.94ZM724.671 394.447C724.664 393.43 724.417 392.639 723.93 392.073C723.45 391.507 722.78 391.225 721.921 391.225C721.09 391.225 720.385 391.522 719.805 392.116C719.225 392.711 718.867 393.488 718.73 394.447H724.671ZM743.008 390L739.71 401H737.884L735.617 393.126C735.531 392.825 735.474 392.485 735.445 392.105H735.402C735.381 392.363 735.306 392.696 735.177 393.104L732.717 401H730.955L727.625 390H729.473L731.75 398.271C731.822 398.522 731.872 398.852 731.9 399.26H731.986C732.008 398.945 732.072 398.608 732.18 398.25L734.715 390H736.326L738.604 398.293C738.675 398.558 738.729 398.887 738.765 399.281H738.851C738.865 399.002 738.926 398.673 739.033 398.293L741.268 390H743.008Z" fill="#2C2C2C"/>
<path d="M573.247 543.355C572.108 543.957 570.69 544.258 568.993 544.258C566.802 544.258 565.047 543.552 563.729 542.142C562.412 540.731 561.753 538.88 561.753 536.588C561.753 534.124 562.494 532.133 563.977 530.615C565.459 529.097 567.339 528.338 569.616 528.338C571.077 528.338 572.287 528.549 573.247 528.972V530.895C572.144 530.279 570.927 529.971 569.595 529.971C567.826 529.971 566.39 530.562 565.287 531.743C564.191 532.925 563.644 534.504 563.644 536.48C563.644 538.357 564.156 539.854 565.18 540.971C566.211 542.081 567.561 542.636 569.229 542.636C570.776 542.636 572.116 542.292 573.247 541.604V543.355ZM585.042 544H583.28V542.26H583.237C582.507 543.592 581.375 544.258 579.843 544.258C577.222 544.258 575.911 542.697 575.911 539.574V533H577.662V539.295C577.662 541.615 578.55 542.775 580.326 542.775C581.186 542.775 581.891 542.46 582.442 541.83C583.001 541.193 583.28 540.362 583.28 539.338V533H585.042V544ZM587.942 543.603V541.712C588.902 542.421 589.958 542.775 591.111 542.775C592.658 542.775 593.432 542.26 593.432 541.229C593.432 540.935 593.364 540.688 593.228 540.487C593.099 540.28 592.92 540.097 592.69 539.939C592.468 539.782 592.203 539.642 591.896 539.521C591.595 539.392 591.269 539.259 590.918 539.123C590.431 538.93 590.001 538.736 589.629 538.543C589.264 538.342 588.956 538.12 588.705 537.877C588.462 537.626 588.275 537.343 588.146 537.028C588.025 536.713 587.964 536.344 587.964 535.922C587.964 535.406 588.082 534.951 588.318 534.558C588.555 534.157 588.87 533.824 589.264 533.559C589.658 533.286 590.105 533.082 590.606 532.946C591.115 532.81 591.638 532.742 592.175 532.742C593.127 532.742 593.979 532.907 594.731 533.236V535.02C593.922 534.49 592.991 534.225 591.938 534.225C591.609 534.225 591.312 534.264 591.047 534.343C590.782 534.414 590.553 534.518 590.359 534.654C590.173 534.79 590.026 534.955 589.919 535.148C589.819 535.335 589.769 535.542 589.769 535.771C589.769 536.058 589.819 536.298 589.919 536.491C590.026 536.685 590.18 536.856 590.381 537.007C590.581 537.157 590.825 537.293 591.111 537.415C591.398 537.537 591.724 537.669 592.089 537.812C592.576 537.999 593.013 538.192 593.399 538.393C593.786 538.586 594.116 538.808 594.388 539.059C594.66 539.302 594.868 539.585 595.011 539.907C595.161 540.229 595.236 540.613 595.236 541.057C595.236 541.601 595.115 542.074 594.871 542.475C594.635 542.876 594.316 543.209 593.915 543.474C593.514 543.739 593.052 543.936 592.529 544.064C592.007 544.193 591.459 544.258 590.886 544.258C589.754 544.258 588.773 544.039 587.942 543.603ZM603.057 543.893C602.641 544.122 602.093 544.236 601.413 544.236C599.487 544.236 598.523 543.162 598.523 541.014V534.504H596.633V533H598.523V530.314L600.285 529.745V533H603.057V534.504H600.285V540.702C600.285 541.44 600.41 541.966 600.661 542.281C600.912 542.596 601.327 542.754 601.907 542.754C602.351 542.754 602.734 542.632 603.057 542.389V543.893ZM610.007 544.258C608.381 544.258 607.081 543.746 606.107 542.722C605.141 541.69 604.657 540.326 604.657 538.629C604.657 536.781 605.162 535.338 606.172 534.3C607.182 533.261 608.546 532.742 610.265 532.742C611.905 532.742 613.183 533.247 614.1 534.257C615.023 535.267 615.485 536.667 615.485 538.457C615.485 540.212 614.988 541.619 613.992 542.679C613.004 543.731 611.675 544.258 610.007 544.258ZM610.136 534.225C609.004 534.225 608.109 534.611 607.45 535.385C606.791 536.151 606.462 537.211 606.462 538.564C606.462 539.868 606.795 540.896 607.461 541.647C608.127 542.399 609.019 542.775 610.136 542.775C611.274 542.775 612.148 542.407 612.757 541.669C613.373 540.931 613.681 539.882 613.681 538.521C613.681 537.146 613.373 536.087 612.757 535.342C612.148 534.597 611.274 534.225 610.136 534.225ZM633.919 544H632.157V537.684C632.157 536.466 631.967 535.585 631.588 535.041C631.215 534.497 630.585 534.225 629.697 534.225C628.945 534.225 628.304 534.568 627.774 535.256C627.252 535.943 626.99 536.767 626.99 537.727V544H625.229V537.469C625.229 535.306 624.394 534.225 622.726 534.225C621.952 534.225 621.315 534.55 620.813 535.202C620.312 535.847 620.062 536.688 620.062 537.727V544H618.3V533H620.062V534.74H620.104C620.885 533.408 622.024 532.742 623.521 532.742C624.272 532.742 624.928 532.953 625.486 533.376C626.045 533.791 626.428 534.339 626.636 535.02C627.452 533.501 628.67 532.742 630.288 532.742C632.709 532.742 633.919 534.235 633.919 537.222V544ZM646.09 538.94H638.323C638.352 540.165 638.681 541.11 639.312 541.776C639.942 542.442 640.808 542.775 641.911 542.775C643.15 542.775 644.289 542.367 645.327 541.551V543.205C644.36 543.907 643.082 544.258 641.492 544.258C639.938 544.258 638.717 543.76 637.829 542.765C636.941 541.762 636.497 540.355 636.497 538.543C636.497 536.831 636.98 535.438 637.947 534.364C638.921 533.283 640.128 532.742 641.567 532.742C643.007 532.742 644.12 533.208 644.908 534.139C645.696 535.07 646.09 536.362 646.09 538.017V538.94ZM644.285 537.447C644.278 536.43 644.031 535.639 643.544 535.073C643.064 534.507 642.395 534.225 641.535 534.225C640.704 534.225 639.999 534.522 639.419 535.116C638.839 535.711 638.481 536.488 638.345 537.447H644.285ZM654.501 534.783C654.193 534.547 653.749 534.429 653.169 534.429C652.417 534.429 651.787 534.783 651.278 535.492C650.777 536.201 650.526 537.168 650.526 538.393V544H648.765V533H650.526V535.267H650.569C650.82 534.493 651.203 533.892 651.719 533.462C652.234 533.025 652.811 532.807 653.448 532.807C653.907 532.807 654.257 532.857 654.501 532.957V534.783ZM668.896 544.258C666.711 544.258 664.96 543.538 663.643 542.099C662.332 540.659 661.677 538.786 661.677 536.48C661.677 534.003 662.346 532.026 663.686 530.551C665.025 529.076 666.847 528.338 669.153 528.338C671.28 528.338 672.992 529.054 674.288 530.486C675.591 531.919 676.243 533.791 676.243 536.104C676.243 538.618 675.577 540.605 674.245 542.066C672.913 543.527 671.13 544.258 668.896 544.258ZM669.024 529.971C667.406 529.971 666.092 530.554 665.082 531.722C664.072 532.889 663.567 534.422 663.567 536.319C663.567 538.217 664.058 539.746 665.039 540.906C666.027 542.059 667.313 542.636 668.896 542.636C670.586 542.636 671.918 542.084 672.892 540.981C673.866 539.879 674.353 538.335 674.353 536.352C674.353 534.318 673.88 532.746 672.935 531.636C671.989 530.526 670.686 529.971 669.024 529.971ZM687.684 533L683.301 544H681.571L677.403 533H679.337L682.13 540.992C682.338 541.579 682.466 542.091 682.517 542.528H682.56C682.631 541.977 682.746 541.479 682.903 541.035L685.825 533H687.684ZM698.426 538.94H690.659C690.688 540.165 691.017 541.11 691.647 541.776C692.278 542.442 693.144 542.775 694.247 542.775C695.486 542.775 696.625 542.367 697.663 541.551V543.205C696.696 543.907 695.418 544.258 693.828 544.258C692.274 544.258 691.053 543.76 690.165 542.765C689.277 541.762 688.833 540.355 688.833 538.543C688.833 536.831 689.316 535.438 690.283 534.364C691.257 533.283 692.464 532.742 693.903 532.742C695.343 532.742 696.456 533.208 697.244 534.139C698.032 535.07 698.426 536.362 698.426 538.017V538.94ZM696.621 537.447C696.614 536.43 696.367 535.639 695.88 535.073C695.4 534.507 694.73 534.225 693.871 534.225C693.04 534.225 692.335 534.522 691.755 535.116C691.175 535.711 690.817 536.488 690.681 537.447H696.621ZM706.837 534.783C706.529 534.547 706.085 534.429 705.505 534.429C704.753 534.429 704.123 534.783 703.614 535.492C703.113 536.201 702.862 537.168 702.862 538.393V544H701.101V533H702.862V535.267H702.905C703.156 534.493 703.539 533.892 704.055 533.462C704.57 533.025 705.147 532.807 705.784 532.807C706.243 532.807 706.593 532.857 706.837 532.957V534.783ZM717.396 533L713.014 544H711.284L707.116 533H709.05L711.843 540.992C712.05 541.579 712.179 542.091 712.229 542.528H712.272C712.344 541.977 712.459 541.479 712.616 541.035L715.538 533H717.396ZM720.2 530.207C719.885 530.207 719.617 530.1 719.395 529.885C719.173 529.67 719.062 529.398 719.062 529.068C719.062 528.739 719.173 528.467 719.395 528.252C719.617 528.03 719.885 527.919 720.2 527.919C720.522 527.919 720.795 528.03 721.017 528.252C721.246 528.467 721.36 528.739 721.36 529.068C721.36 529.383 721.246 529.652 721.017 529.874C720.795 530.096 720.522 530.207 720.2 530.207ZM721.06 544H719.298V533H721.06V544ZM733.467 538.94H725.7C725.729 540.165 726.058 541.11 726.688 541.776C727.319 542.442 728.185 542.775 729.288 542.775C730.527 542.775 731.666 542.367 732.704 541.551V543.205C731.737 543.907 730.459 544.258 728.869 544.258C727.315 544.258 726.094 543.76 725.206 542.765C724.318 541.762 723.874 540.355 723.874 538.543C723.874 536.831 724.357 535.438 725.324 534.364C726.298 533.283 727.505 532.742 728.944 532.742C730.384 532.742 731.497 533.208 732.285 534.139C733.073 535.07 733.467 536.362 733.467 538.017V538.94ZM731.662 537.447C731.655 536.43 731.408 535.639 730.921 535.073C730.441 534.507 729.771 534.225 728.912 534.225C728.081 534.225 727.376 534.522 726.796 535.116C726.216 535.711 725.858 536.488 725.722 537.447H731.662ZM749.999 533L746.701 544H744.875L742.608 536.126C742.522 535.825 742.465 535.485 742.437 535.105H742.394C742.372 535.363 742.297 535.696 742.168 536.104L739.708 544H737.946L734.616 533H736.464L738.741 541.271C738.813 541.522 738.863 541.852 738.892 542.26H738.978C738.999 541.945 739.063 541.608 739.171 541.25L741.706 533H743.317L745.595 541.293C745.666 541.558 745.72 541.887 745.756 542.281H745.842C745.856 542.002 745.917 541.673 746.024 541.293L748.259 533H749.999Z" fill="#2C2C2C"/>
<path d="M574.451 256.377V254.25C574.695 254.465 574.985 254.658 575.321 254.83C575.665 255.002 576.023 255.149 576.396 255.271C576.775 255.385 577.155 255.475 577.534 255.539C577.914 255.604 578.265 255.636 578.587 255.636C579.697 255.636 580.524 255.432 581.068 255.023C581.62 254.608 581.896 254.014 581.896 253.24C581.896 252.825 581.802 252.463 581.616 252.155C581.437 251.847 581.187 251.568 580.864 251.317C580.542 251.06 580.159 250.816 579.715 250.587C579.278 250.351 578.805 250.104 578.297 249.846C577.76 249.574 577.258 249.298 576.793 249.019C576.327 248.739 575.923 248.431 575.579 248.095C575.235 247.758 574.963 247.379 574.763 246.956C574.569 246.526 574.473 246.025 574.473 245.452C574.473 244.75 574.627 244.142 574.935 243.626C575.243 243.103 575.647 242.674 576.148 242.337C576.65 242 577.219 241.75 577.856 241.585C578.501 241.42 579.156 241.338 579.822 241.338C581.34 241.338 582.447 241.521 583.142 241.886V243.916C582.232 243.286 581.065 242.971 579.64 242.971C579.246 242.971 578.852 243.014 578.458 243.1C578.064 243.178 577.713 243.311 577.405 243.497C577.097 243.683 576.847 243.923 576.653 244.217C576.46 244.51 576.363 244.868 576.363 245.291C576.363 245.685 576.435 246.025 576.578 246.312C576.729 246.598 576.947 246.859 577.233 247.096C577.52 247.332 577.867 247.561 578.275 247.783C578.691 248.005 579.167 248.249 579.704 248.514C580.256 248.786 580.778 249.072 581.272 249.373C581.767 249.674 582.2 250.007 582.572 250.372C582.945 250.737 583.238 251.142 583.453 251.586C583.675 252.03 583.786 252.538 583.786 253.111C583.786 253.87 583.636 254.515 583.335 255.045C583.041 255.568 582.64 255.994 582.132 256.323C581.631 256.653 581.05 256.889 580.392 257.032C579.733 257.183 579.038 257.258 578.308 257.258C578.064 257.258 577.763 257.236 577.405 257.193C577.047 257.158 576.682 257.1 576.31 257.021C575.937 256.95 575.583 256.86 575.246 256.753C574.917 256.638 574.652 256.513 574.451 256.377ZM594.496 257H592.734V255.281H592.691C591.925 256.599 590.797 257.258 589.308 257.258C588.212 257.258 587.353 256.968 586.729 256.388C586.114 255.808 585.806 255.038 585.806 254.078C585.806 252.023 587.016 250.827 589.437 250.49L592.734 250.028C592.734 248.159 591.979 247.225 590.468 247.225C589.143 247.225 587.947 247.676 586.88 248.578V246.773C587.961 246.086 589.207 245.742 590.618 245.742C593.203 245.742 594.496 247.11 594.496 249.846V257ZM592.734 251.436L590.081 251.801C589.265 251.915 588.649 252.119 588.233 252.413C587.818 252.7 587.61 253.212 587.61 253.949C587.61 254.486 587.8 254.927 588.18 255.271C588.566 255.607 589.078 255.775 589.716 255.775C590.59 255.775 591.309 255.471 591.875 254.862C592.448 254.246 592.734 253.469 592.734 252.531V251.436ZM599.577 257H597.815V240.715H599.577V257ZM611.984 251.94H604.218C604.246 253.165 604.576 254.11 605.206 254.776C605.836 255.442 606.703 255.775 607.806 255.775C609.045 255.775 610.183 255.367 611.222 254.551V256.205C610.255 256.907 608.977 257.258 607.387 257.258C605.833 257.258 604.612 256.76 603.724 255.765C602.836 254.762 602.392 253.355 602.392 251.543C602.392 249.831 602.875 248.438 603.842 247.364C604.816 246.283 606.022 245.742 607.462 245.742C608.901 245.742 610.015 246.208 610.803 247.139C611.59 248.07 611.984 249.362 611.984 251.017V251.94ZM610.18 250.447C610.173 249.43 609.925 248.639 609.438 248.073C608.959 247.507 608.289 247.225 607.43 247.225C606.599 247.225 605.894 247.522 605.313 248.116C604.733 248.711 604.375 249.488 604.239 250.447H610.18ZM613.993 256.603V254.712C614.953 255.421 616.009 255.775 617.162 255.775C618.709 255.775 619.482 255.26 619.482 254.229C619.482 253.935 619.414 253.688 619.278 253.487C619.149 253.28 618.97 253.097 618.741 252.939C618.519 252.782 618.254 252.642 617.946 252.521C617.646 252.392 617.32 252.259 616.969 252.123C616.482 251.93 616.052 251.736 615.68 251.543C615.314 251.342 615.007 251.12 614.756 250.877C614.512 250.626 614.326 250.343 614.197 250.028C614.076 249.713 614.015 249.344 614.015 248.922C614.015 248.406 614.133 247.951 614.369 247.558C614.605 247.157 614.921 246.824 615.314 246.559C615.708 246.286 616.156 246.082 616.657 245.946C617.166 245.81 617.688 245.742 618.226 245.742C619.178 245.742 620.03 245.907 620.782 246.236V248.02C619.973 247.49 619.042 247.225 617.989 247.225C617.66 247.225 617.363 247.264 617.098 247.343C616.833 247.414 616.604 247.518 616.41 247.654C616.224 247.79 616.077 247.955 615.97 248.148C615.869 248.335 615.819 248.542 615.819 248.771C615.819 249.058 615.869 249.298 615.97 249.491C616.077 249.685 616.231 249.856 616.432 250.007C616.632 250.157 616.876 250.293 617.162 250.415C617.449 250.537 617.774 250.669 618.14 250.812C618.627 250.999 619.063 251.192 619.45 251.393C619.837 251.586 620.166 251.808 620.438 252.059C620.711 252.302 620.918 252.585 621.062 252.907C621.212 253.229 621.287 253.613 621.287 254.057C621.287 254.601 621.165 255.074 620.922 255.475C620.686 255.876 620.367 256.209 619.966 256.474C619.565 256.739 619.103 256.936 618.58 257.064C618.057 257.193 617.509 257.258 616.937 257.258C615.805 257.258 614.824 257.039 613.993 256.603ZM636.487 257.258C634.303 257.258 632.552 256.538 631.234 255.099C629.924 253.659 629.269 251.786 629.269 249.48C629.269 247.003 629.938 245.026 631.277 243.551C632.617 242.076 634.439 241.338 636.745 241.338C638.872 241.338 640.584 242.054 641.88 243.486C643.183 244.919 643.835 246.791 643.835 249.104C643.835 251.618 643.169 253.605 641.837 255.066C640.505 256.527 638.722 257.258 636.487 257.258ZM636.616 242.971C634.998 242.971 633.684 243.554 632.674 244.722C631.664 245.889 631.159 247.422 631.159 249.319C631.159 251.217 631.65 252.746 632.631 253.906C633.619 255.059 634.905 255.636 636.487 255.636C638.177 255.636 639.509 255.084 640.483 253.981C641.457 252.879 641.944 251.335 641.944 249.352C641.944 247.318 641.472 245.746 640.526 244.636C639.581 243.526 638.278 242.971 636.616 242.971ZM655.275 246L650.893 257H649.163L644.995 246H646.929L649.722 253.992C649.929 254.579 650.058 255.091 650.108 255.528H650.151C650.223 254.977 650.338 254.479 650.495 254.035L653.417 246H655.275ZM666.018 251.94H658.251C658.28 253.165 658.609 254.11 659.239 254.776C659.869 255.442 660.736 255.775 661.839 255.775C663.078 255.775 664.216 255.367 665.255 254.551V256.205C664.288 256.907 663.01 257.258 661.42 257.258C659.866 257.258 658.645 256.76 657.757 255.765C656.869 254.762 656.425 253.355 656.425 251.543C656.425 249.831 656.908 248.438 657.875 247.364C658.849 246.283 660.056 245.742 661.495 245.742C662.935 245.742 664.048 246.208 664.836 247.139C665.624 248.07 666.018 249.362 666.018 251.017V251.94ZM664.213 250.447C664.206 249.43 663.959 248.639 663.472 248.073C662.992 247.507 662.322 247.225 661.463 247.225C660.632 247.225 659.927 247.522 659.347 248.116C658.767 248.711 658.409 249.488 658.272 250.447H664.213ZM674.429 247.783C674.121 247.547 673.677 247.429 673.097 247.429C672.345 247.429 671.715 247.783 671.206 248.492C670.705 249.201 670.454 250.168 670.454 251.393V257H668.692V246H670.454V248.267H670.497C670.748 247.493 671.131 246.892 671.646 246.462C672.162 246.025 672.739 245.807 673.376 245.807C673.834 245.807 674.185 245.857 674.429 245.957V247.783ZM684.988 246L680.605 257H678.876L674.708 246H676.642L679.435 253.992C679.642 254.579 679.771 255.091 679.821 255.528H679.864C679.936 254.977 680.05 254.479 680.208 254.035L683.13 246H684.988ZM687.792 243.207C687.477 243.207 687.208 243.1 686.986 242.885C686.764 242.67 686.653 242.398 686.653 242.068C686.653 241.739 686.764 241.467 686.986 241.252C687.208 241.03 687.477 240.919 687.792 240.919C688.114 240.919 688.386 241.03 688.608 241.252C688.838 241.467 688.952 241.739 688.952 242.068C688.952 242.383 688.838 242.652 688.608 242.874C688.386 243.096 688.114 243.207 687.792 243.207ZM688.651 257H686.89V246H688.651V257ZM701.059 251.94H693.292C693.321 253.165 693.65 254.11 694.28 254.776C694.91 255.442 695.777 255.775 696.88 255.775C698.119 255.775 699.257 255.367 700.296 254.551V256.205C699.329 256.907 698.051 257.258 696.461 257.258C694.907 257.258 693.686 256.76 692.798 255.765C691.91 254.762 691.466 253.355 691.466 251.543C691.466 249.831 691.949 248.438 692.916 247.364C693.89 246.283 695.097 245.742 696.536 245.742C697.976 245.742 699.089 246.208 699.877 247.139C700.665 248.07 701.059 249.362 701.059 251.017V251.94ZM699.254 250.447C699.247 249.43 699 248.639 698.513 248.073C698.033 247.507 697.363 247.225 696.504 247.225C695.673 247.225 694.968 247.522 694.388 248.116C693.808 248.711 693.45 249.488 693.313 250.447H699.254ZM717.591 246L714.293 257H712.467L710.2 249.126C710.114 248.825 710.057 248.485 710.028 248.105H709.985C709.964 248.363 709.889 248.696 709.76 249.104L707.3 257H705.538L702.208 246H704.056L706.333 254.271C706.405 254.522 706.455 254.852 706.483 255.26H706.569C706.591 254.945 706.655 254.608 706.763 254.25L709.298 246H710.909L713.187 254.293C713.258 254.558 713.312 254.887 713.348 255.281H713.434C713.448 255.002 713.509 254.673 713.616 254.293L715.851 246H717.591Z" fill="#2C2C2C"/>
<path d="M561.916 233H527.084C526.485 233 526 233.446 526 233.996C526 234.546 526.485 234.992 527.084 234.992H527.161V258.002C527.161 260.022 528.949 261.665 531.148 261.665H543.416V262.565C542.559 262.939 541.964 263.742 541.964 264.67C541.964 265.955 543.102 267 544.5 267C545.898 267 547.035 265.955 547.035 264.67C547.035 263.742 546.441 262.939 545.584 262.565V261.665H557.852C560.051 261.665 561.839 260.022 561.839 258.002V234.992H561.916C562.515 234.992 563 234.546 563 233.996C563 233.446 562.515 233 561.916 233ZM544.5 265.008C544.297 265.008 544.132 264.856 544.132 264.67C544.132 264.484 544.297 264.333 544.5 264.333C544.703 264.333 544.867 264.484 544.867 264.67C544.867 264.856 544.703 265.008 544.5 265.008ZM539.856 256.331C536.057 256.331 532.966 253.491 532.966 250C532.966 246.509 536.057 243.669 539.856 243.669C540.455 243.669 540.94 244.115 540.94 244.665V249.004H545.661C546.26 249.004 546.745 249.45 546.745 250C546.745 253.491 543.655 256.331 539.856 256.331ZM554.95 256.331H551.466C550.868 256.331 550.382 255.885 550.382 255.335C550.382 254.785 550.868 254.339 551.466 254.339H554.95C555.548 254.339 556.034 254.785 556.034 255.335C556.034 255.885 555.548 256.331 554.95 256.331ZM554.95 250.996H551.466C550.868 250.996 550.382 250.55 550.382 250C550.382 249.45 550.868 249.004 551.466 249.004H554.95C555.548 249.004 556.034 249.45 556.034 250C556.034 250.55 555.548 250.996 554.95 250.996ZM554.95 245.662H551.466C550.868 245.662 550.382 245.215 550.382 244.665C550.382 244.115 550.868 243.669 551.466 243.669H554.95C555.548 243.669 556.034 244.115 556.034 244.665C556.034 245.215 555.548 245.662 554.95 245.662ZM554.95 240.327H534.05C533.452 240.327 532.966 239.881 532.966 239.331C532.966 238.781 533.452 238.335 534.05 238.335H554.95C555.548 238.335 556.034 238.781 556.034 239.331C556.034 239.881 555.548 240.327 554.95 240.327Z" fill="#7D7D7D"/>
<g clip-path="url(#clip1_3_23)">
<path d="M528.598 390.554L531.077 404.223C531.271 405.292 532.277 406.076 533.457 406.076H555.921C557.122 406.076 558.14 405.265 558.31 404.172L560.427 390.554H528.598ZM538.467 400.533C538.467 401.145 537.927 401.641 537.261 401.641C536.594 401.641 536.054 401.145 536.054 400.533V393.88C536.054 393.268 536.594 392.772 537.261 392.772C537.927 392.772 538.467 393.268 538.467 393.88V400.533ZM545.707 400.533C545.707 401.145 545.167 401.641 544.5 401.641C543.833 401.641 543.293 401.145 543.293 400.533V393.88C543.293 393.268 543.833 392.772 544.5 392.772C545.167 392.772 545.707 393.268 545.707 393.88V400.533ZM552.946 400.533C552.946 401.145 552.406 401.641 551.739 401.641C551.073 401.641 550.533 401.145 550.533 400.533V393.88C550.533 393.268 551.073 392.772 551.739 392.772C552.406 392.772 552.946 393.268 552.946 393.88V400.533Z" fill="#7D7D7D"/>
<path d="M561.793 383.902H558.271L547.766 374.249C547.295 373.816 546.531 373.816 546.06 374.249C545.589 374.681 545.589 375.384 546.06 375.817L554.859 383.902H534.141L542.94 375.817C543.411 375.384 543.411 374.681 542.94 374.249C542.469 373.816 541.705 373.816 541.234 374.249L530.729 383.902H527.207C526.54 383.902 526 384.399 526 385.011V387.228C526 387.841 526.54 388.337 527.207 388.337H561.794C562.46 388.337 563 387.841 563 387.228V385.011C563 384.399 562.46 383.902 561.793 383.902Z" fill="#7D7D7D"/>
</g>
<path d="M554.007 537C554.007 543.069 549.069 548.007 543 548.007H529.814L530.942 546.878L529.533 545.47L526 549.003L529.533 552.536L530.942 551.128L529.814 549.999H543C550.168 549.999 555.999 544.168 555.999 537V536.004H554.007V537Z" fill="#7D7D7D"/>
<path d="M551.5 537C551.5 532.306 547.694 528.5 543 528.5C538.306 528.5 534.5 532.306 534.5 537C534.5 541.694 538.306 545.5 543 545.5C547.694 545.5 551.5 541.694 551.5 537ZM539.721 538.807H541.713C541.713 539.255 542.078 539.62 542.526 539.62H543.497C543.944 539.62 544.309 539.256 544.309 538.808C544.309 538.36 543.944 537.996 543.497 537.996H542.503C540.957 537.996 539.699 536.738 539.699 535.192C539.699 533.816 540.695 532.669 542.004 532.433V531.303H543.996V532.43C545.296 532.659 546.286 533.795 546.286 535.16H544.294C544.294 534.73 543.944 534.38 543.514 534.38H542.503C542.056 534.38 541.691 534.744 541.691 535.192C541.691 535.64 542.056 536.004 542.503 536.004H543.497C545.043 536.004 546.301 537.262 546.301 538.808C546.301 540.184 545.305 541.331 543.996 541.567V542.697H542.004V541.563C540.706 541.317 539.721 540.175 539.721 538.807Z" fill="#7D7D7D"/>
<path d="M556.467 521.464L555.058 522.872L556.187 524.001H543C535.832 524.001 530.001 529.832 530.001 537V537.996H531.993V537C531.993 530.931 536.931 525.993 543 525.993H556.187L555.058 527.122L556.467 528.531L560 524.997L556.467 521.464Z" fill="#7D7D7D"/>
</g>
<defs>
<filter id="filter0_d_3_23" x="-87" y="5" width="1483" height="717" filterUnits="userSpaceOnUse" color-interpolation-filters="sRGB">
<feFlood flood-opacity="0" result="BackgroundImageFix"/>
<feColorMatrix in="SourceAlpha" type="matrix" values="0 0 0 0 0 0 0 0 0 0 0 0 0 0 0 0 0 0 127 0" result="hardAlpha"/>
<feOffset dy="4"/>
<feGaussianBlur stdDeviation="5"/>
<feComposite in2="hardAlpha" operator="out"/>
<feColorMatrix type="matrix" values="0 0 0 0 0 0 0 0 0 0 0 0 0 0 0 0 0 0 0.05 0"/>
<feBlend mode="normal" in2="BackgroundImageFix" result="effect1_dropShadow_3_23"/>
<feBlend mode="normal" in="SourceGraphic" in2="effect1_dropShadow_3_23" result="shape"/>
</filter>
<clipPath id="clip0_3_23">
<rect width="1280" height="720" fill="white"/>
</clipPath>
<clipPath id="clip1_3_23">
<rect width="37" height="34" fill="white" transform="translate(526 373)"/>
</clipPath>
</defs>
</svg>
